<svg xmlns="http://www.w3.org/2000/svg" version="1.1" width="600px" height="600px" viewBox="0 0 200 200" style="overflow:hidden!important;"><g id="svga-group-wrapper"><g id="svga-group-backs-single"><path id="SvgjsPath9365" d="M0 0h200v200H0V0z" fill="#f1d4af" stroke-width="none" opacity="1" stroke="none"></path><path id="SvgjsPath9366" d="M0 0v10.1L76.5 100 0 0zm0 34.1V50l76.5 58.3L0 34.1zm0 37.1v13.6l76.5 33.4L0 71.2zM38.3 0H21.1l67.2 108.3L38.3 0zm36.3 0H61l27.2 90L74.6 0zM0 108.3v9.9l76.5 9.9L0 108.3zM0 144v13.6l76.5-22.1L0 144zm0 35.7V200l88.3-64.5L0 179.7zM38.3 200h16.4l26.5-42.4L38.3 200zm85.2-100L200 10.1V0l-76.5 100zM200 50V34.1l-76.5 74.2L200 50zm0 34.8V71.2l-76.5 47L200 84.8zM178.9 0h-17.2l-50 108.3L178.9 0zM139 0h-13.6l-13.6 90L139 0zm61 118.2v-9.9L123.5 128l76.5-9.8zm0 39.4V144l-76.5-8.5 76.5 22.1zm0 42.4v-20.3l-88.3-44.2L200 200zm-54.7 0h16.4l-43-42.4 26.6 42.4zM111.7 0H88.3L100 100 111.7 0zM76.5 200h11.7l6.4-58.5L76.5 200zm35.2 0h11.7l-18.2-58.5 6.5 58.5zm-17 0h10.6l-5.3-42.4-5.3 42.4z" fill="#e2bd8d" stroke-width="none" opacity="1" stroke="none"></path></g><g id="svga-group-humanwrap-move" transform="matrix(1,0,0,1,0,0)"><g id="svga-group-humanwrap" transform="matrix(1.0500002000000002,0,0,1.0500002000000002,-4.972521549399957,-6.066486782634755)"><g id="svga-group-hair-back-move" transform="matrix(1,0,0,1,0,0)"><g id="svga-group-hair-back"></g></g><g id="svga-group-humanbody-back"><path id="SvgjsPath9055" d="M166.5 181.1c-10.9-6.6-24-7.8-31-12.1s-9.1-4.7-8.9-17.8 1.9-42.4 1.9-42.4H71.4s1.6 29.4 1.9 42.4-1.9 13.5-8.9 17.8-20.1 5.4-31 12.1c-10.8 6.6-10 18.9-10 18.9v19.7h153.3V200c-.1 0 .7-12.3-10.2-18.9z" fill="#cb8d60" stroke-width="none" opacity="1"></path></g><g id="svga-group-chinshadow-single"><path id="SvgjsPath9051" d="M117.7 161c2.9-3.1 6-7.1 9-11.1.3-13.6 1.9-41 1.9-41H71.4s1.5 27.4 1.9 41c3 4.1 6.1 8 9 11.1 5.5 6.1 8.4 6.5 17.7 6.5 9.3 0 12.2-.4 17.7-6.5z" fill="#ac642f" stroke-width="none" opacity="1"></path></g><g id="svga-group-humanbody-front"><path id="SvgjsPath9056" d="M176.7 197.2c-.1-.9-.3-1.9-.5-2.8-.4-1.8-1.1-3.6-2-5.3-.4-.8-.9-1.6-1.5-2.4-.5-.8-1.1-1.5-1.8-2.2-1.3-1.4-2.8-2.6-4.4-3.5-3.5-2.1-7.2-3.7-11.1-5.1-1.9-.7-3.8-1.3-5.8-1.9-1.9-.6-3.9-1.2-5.8-1.8-1.9-.6-3.8-1.3-5.6-2.2-.9-.4-1.8-.9-2.6-1.4L133 167c-1.7-1.1-3.3-2.2-4.2-3.9-.2-.4-.4-.8-.6-1.3-.2-.5-.3-.9-.4-1.4-.2-.9-.3-1.9-.4-2.9-.1-2-.1-4 0-6s.2-4 .3-6.1c.2-4 .4-8.1.6-12.1l1.3-24.3.1-1.2h-1.2c-4.8 0-9.5.1-14.3.1l-14.2.1-28.6.4h-.5v.5c.6 10 1.2 19.9 1.6 29.9.2 5 .4 10 .4 15 0 1.2-.1 2.5-.2 3.7s-.3 2.4-.6 3.6c-.3 1.1-.9 2.2-1.7 3.1-.8.9-1.8 1.6-2.8 2.2-1 .7-2.1 1.3-3.2 1.9-.5.3-1.1.6-1.6.9-.5.3-1.1.5-1.7.8-2.3.9-4.6 1.6-7 2.3-4.8 1.4-9.7 2.7-14.4 4.6-2.3 1-4.6 2.1-6.8 3.4-2.2 1.3-4.3 3.1-5.9 5.2-1.6 2.1-2.8 4.4-3.6 6.9-.4 1.2-.7 2.5-.9 3.8-.1.6-.2 1.3-.2 2 0 .3 0 .7-.1 1v20.9h154.6l.1-20c0-1.1-.1-2-.2-2.9zM24.6 217.7v-19.5c0-.6.1-1.2.2-1.8.2-1.2.4-2.3.8-3.5.7-2.3 1.8-4.4 3.2-6.3 1.4-1.9 3.2-3.5 5.2-4.7 2.1-1.3 4.3-2.4 6.5-3.4 4.5-2 9.3-3.4 14.1-4.9 2.4-.8 4.8-1.5 7.1-2.6.6-.3 1.2-.5 1.7-.8.3-.2.6-.3.8-.5.3-.2.6-.3.8-.5 1.1-.7 2.1-1.3 3.2-2s2.1-1.5 3-2.5c.4-.5.8-1.1 1.1-1.7.3-.6.5-1.2.7-1.8.4-1.3.5-2.5.6-3.8s.1-2.5.1-3.8 0-2.5-.1-3.8l-.1-3.7-.3-7.5-1.2-29.2 28 .4 14.3.2c4.4 0 8.7.1 13.1.1-.4 7.7-.8 15.4-1.1 23.1-.1 4.1-.3 8.1-.4 12.2 0 2-.1 4.1-.1 6.1s0 4.1.2 6.2c.1 1 .3 2.1.5 3.1.1.5.3 1 .5 1.5s.4 1 .7 1.5c.3.5.6.9 1 1.3s.8.8 1.2 1.1c.8.7 1.7 1.2 2.6 1.7l2.6 1.5c.9.5 1.8 1 2.8 1.4 1.9.8 3.8 1.4 5.8 2 3.9 1.1 7.8 2.2 11.7 3.5 1.9.6 3.8 1.4 5.7 2.2 1.8.8 3.6 1.8 5.4 2.8 1.6 1 3 2.2 4.3 3.5.6.7 1.2 1.4 1.7 2.2s1 1.6 1.4 2.4c.8 1.7 1.5 3.4 1.9 5.2.2.9.3 1.8.4 2.7.1.8.1 20.6.1 21.4-12.6-.2-151.7-1-151.7-1z" fill="#9d521b" stroke-width="none" opacity="1"></path><path id="SvgjsPath9057" d="M78.7 156.8c.5 4.8 1.7 9.4 3.1 13.9.8 2.3 1.6 4.6 2.6 6.9.8 2 1.7 4.2 3.1 5.9.3.4 1 0 .9-.5-.5-2.2-1.6-4.3-2.4-6.4-.9-2.2-1.7-4.4-2.5-6.6-1.5-4.4-2.8-8.9-4.1-13.3-.2-.4-.8-.3-.7.1zm41.3-1c-1.3 8.2-3.9 16.1-5.4 24.2-.1.4.4.5.6.2 3.1-7.7 4.1-16.1 5.1-24.3-.1-.2-.3-.2-.3-.1zm-25.8 11.9c-.9 3.6 1.9 8.6 6.2 7.6.5-.1.4-.8 0-1-1.4-.5-2.9-.9-3.9-2.1-1.1-1.2-1.5-2.9-1.4-4.5 0-.4-.8-.5-.9 0z" fill="#ac642f" stroke-width="none" opacity="1"></path></g><g id="svga-group-clothes-single"><path id="SvgjsPath8940" d="M180.3 220.1c0-17.5-1.6-28.7-1.6-28.7-3.2-15.2-22.5-16.1-31.1-18.5-2.8-.8-11.3-5.4-11.3-5.4-4-8.6-9.1-13.4-9.1-13.4s-1.4 17.5-7.3 21.6c-2.8 1.9-8.9 3.1-11.2 5-2.4 2-5.9 10.2-5.9 10.2s-8.5-12.5-10.7-12.3c-4.7.5-8 0-9.2-.4-6.7-2-9.8-23.8-9.8-23.8s-6.5 4.6-9.4 12.4c-3.2 1.4-7.9 3.6-11.9 5.1-8.4 3.1-27.5 5.6-30.5 19.6 0 0-1.6 11.2-1.6 28.7l160.6-.1z" fill="#39557e" stroke-width="none" opacity="1"></path><path id="SvgjsPath8941" d="M180.6 210.1c0-3.3-.1-6.7-.3-10-.1-1.7-.2-3.3-.3-5l-.2-2.5-.1-1.3c-.1-.4-.2-.9-.3-1.3-.9-3.4-2.8-6.5-5.4-8.9-2.6-2.3-5.7-4-8.9-5.1-3.2-1.2-6.5-2-9.8-2.7l-4.9-1c-.8-.2-1.6-.4-2.3-.6-.7-.2-1.4-.5-2.2-.9-2.8-1.3-5.6-2.8-8.4-4.3-1.1-2.4-2.4-4.7-3.9-6.9-.8-1.2-1.6-2.3-2.5-3.4-.9-1.1-1.8-2.1-2.9-3.2-.2-.2-.5-.3-.8-.4-.7-.1-1.4.5-1.4 1.2v.1c-.4 3.8-1 7.7-2 11.4-.5 1.9-1.1 3.7-1.9 5.4-.8 1.7-1.8 3.2-3.2 4-1.5.9-3.4 1.5-5.2 2.2-.9.3-1.9.7-2.8 1.1-1 .4-1.9.9-2.9 1.6-1 .9-1.5 1.7-2.1 2.6-.6.9-1.1 1.8-1.5 2.6l-1.8 3.6c-2.2-3-4.4-6-7-8.7-.4-.4-.8-.8-1.3-1.2-.2-.2-.5-.4-.8-.6-.3-.2-.6-.4-1.2-.4h-.6l-.4.1-.8.1c-.5.1-1.1.1-1.6.1-1.1 0-2.1 0-3.2-.1-1-.1-2.2-.2-3-.5-.8-.3-1.6-1-2.2-1.8-.6-.8-1.2-1.7-1.7-2.6-1-1.9-1.8-3.9-2.4-5.9-1.3-4.1-2.2-8.4-2.9-12.6 0-.1-.1-.1-.1-.2-.2-.2-.5-.2-.7-.1-1.1.8-2.1 1.7-3 2.7s-1.8 2-2.6 3c-.8 1.1-1.5 2.2-2.2 3.3-.7 1.1-1.2 2.2-1.7 3.4-3.8 1.7-7.7 3.4-11.6 4.8-4 1.4-8.1 2.3-12.2 3.6-4.1 1.3-8.2 2.9-11.8 5.5-1.8 1.3-3.4 2.9-4.8 4.7-1.3 1.8-2.3 4-2.8 6.2v.1c-.3 2.4-.6 4.8-.8 7.2-.2 2.4-.4 4.8-.5 7.2-.1 2.4-.3 4.8-.3 7.2-.1 2.4-.1 4.8-.1 7.2 0 .8.6 1.4 1.4 1.4l40.5.2c13.5 0 27-.1 40.4-.2l40.2-.5 19.9-.3 19.8-.4c.1-3.5.1-6.9.1-10.2zM120.2 177c1-.6 1.9-1.5 2.5-2.4.7-.9 1.2-1.8 1.7-2.8.9-1.9 1.6-3.9 2.1-5.8.8-3 1.3-5.9 1.8-8.9.2.3.4.5.7.8.8 1 1.6 2.1 2.3 3.2 1.5 2.2 2.8 4.5 3.9 6.9.1.2.3.4.6.6.2.1.5.2.7.4.2 1.4.3 2.8.4 4.2l.6 7.5c.3 4.4.7 8.9 1.1 13.3-1.7-.8-3.4-1.8-4.9-2.8-2.1-1.4-4.1-2.9-6.1-4.4-2-1.6-3.9-3.1-5.8-4.9-.9-.9-1.8-1.8-2.9-2.5-.7-.4-1.5-.8-2.4-.9 1.2-.3 2.5-.8 3.7-1.5zm-22.1 19.1c-.6-1.7-1.3-3.3-2.2-4.9-.8-1.5-1.7-3-2.8-4.3.4 0 .8.1 1.2.1.9.1 1.9.1 2.8.2h1.7c1 1.4 1.9 2.7 2.8 4.1-1.2 1.4-2.3 2.9-3.4 4.4 0 .2 0 .2-.1.4zm-9.2-16.5c.6 0 1.1 0 1.7-.1l.8-.1H92s.2.1.3.2c.2.1.4.3.5.4.4.3.7.7 1.1 1.1 1.6 1.8 3.2 3.8 4.6 5.8-1.4-.2-2.8-.5-4.3-.7-1.8-.3-3.7-.6-5.5-1-1.8-.4-3.6-.8-5.4-1.3-1.7-.5-3.4-.9-5-1.5l.1-.1c.8-1 1.7-1.9 2.7-2.6.5-.3 1-.6 1.5-.8 1 .3 1.8.4 2.8.5 1.3.2 2.4.2 3.5.2zm-24.8-12.7c.5-1.2 1-2.4 1.6-3.5.6-1.1 1.3-2.2 2.1-3.2s1.6-2 2.6-2.9c.7-.7 1.5-1.4 2.2-2 .6 4.1 1.4 8.1 2.6 12 .6 2.1 1.3 4.2 2.3 6.2.5 1 1.1 2 1.8 2.9.7.9 1.6 1.8 2.8 2.3.2.1.3.1.5.1-.5.2-1 .4-1.4.7-1.1.6-2 1.6-2.9 2.5-1.8 1.7-3.8 3.3-5.8 4.9s-4 3.1-6.1 4.4c-1.6 1-3.3 2-5 2.8.4-4.4.8-8.9 1.1-13.3l.5-7.5c.2-2 .3-4.1.7-6.1.2-.1.3-.2.4-.3zm-4.6 51.6-38.5.2c0-4.3.1-8.6.2-12.9.1-2.4.2-4.8.4-7.1.2-2.4.4-4.7.6-7.1.4-1.9 1.2-3.8 2.3-5.4 1.1-1.6 2.5-3.1 4.2-4.4.3-.2.5-.4.8-.6 1.6 2.9 3.3 5.7 5 8.5 1.8 2.9 3.6 5.8 5.5 8.7.5.8.9 1.4 1.1 2.2.3.8.5 1.6.6 2.4.4 1.6.6 3.3.8 5l.6 5.1c.2 1.7.3 3.4.5 5.1v-5.1l-.3-5.1c-.1-1.7-.4-3.4-.7-5.1-.2-.9-.4-1.7-.6-2.6-.2-.9-.7-1.7-1.2-2.4-1.9-2.9-3.7-5.8-5.7-8.6-1.8-2.7-3.7-5.4-5.6-8.1 3.1-2.2 6.7-3.7 10.3-5 4-1.4 8.1-2.4 12.2-3.9 3.9-1.6 7.8-3.3 11.6-5.1-.4 2-.7 4-1 6l-1 7.5c-.7 5-1.5 9.9-2.3 14.9 0 .2 0 .4.1.6.2.5.8.7 1.3.5 2.4-1.2 4.5-2.6 6.6-4.1 2-1.6 4-3.2 5.9-4.9 1.8-1.7 3.7-3.3 5.3-5.2 1.5.9 3.2 1.6 4.8 2.2 1.8.6 3.6 1.1 5.4 1.5 1.4.3 2.8.5 4.1.6.6 1.7 1.3 3.3 2.2 4.8.9 1.6 1.8 3.1 3 4.5-.1.1-.2.3-.2.5-.1.4-.1.7-.2 1.1-.1.7-.1 1.4-.1 2.1v4.1c.1 2.7.2 5.4.4 8.1l.3 4.1c.1.9.2 1.8.3 2.6-13-.1-26-.2-39-.2zm39.9.3h-.7v-6.7l-.2-8.1c0-1.4-.1-2.7-.1-4 0-.7 0-1.3.1-2s.1-1.2.5-1.8c.6-1.2 1.4-2.3 2.2-3.4l.8-1.1c.1.1.2.2.4.3.6.3 1.3 0 1.6-.6.6-1.3 1.3-2.6 1.9-3.9 1.2 0 2.3-.1 3.4-.3 1.4-.2 2.8-.6 4.2-1-1.8 2.4-3.5 4.9-5.2 7.4-.9 1.3-1.8 2.6-2.7 4l-.7 1-.3.5c-.1.1-.3.5-.3.7-.2.9-.2 1.7-.3 2.5-.1 3.2.1 6.4.3 9.6.2 2.4.4 4.8.7 7.1l-5.6-.2zm40.2.5-34.3-.4-.1-2.4-.1-4.8c-.1-3.2-.2-6.4-.1-9.5 0-.8.1-1.6.2-2.3.1-.2 0-.2.2-.4l.3-.5.6-1c.8-1.4 1.7-2.7 2.5-4.1 1.6-2.6 3.1-5.1 4.6-7.8 1.4-.4 2.8-.9 4.1-1.5 1.3-.6 2.7-1.2 3.9-2l-4.2 1.2c-1.4.4-2.8.9-4.2 1.3l-4.2 1.2c-1 .3-2.1.5-3.1.8.2-.3.3-.7.5-1 .5-.9.9-1.7 1.5-2.5.5-.8 1.1-1.6 1.6-2 .6-.4 1.4-.9 2.3-1.2.9-.4 1.8-.7 2.7-1 .6-.2 1.2-.4 1.8-.7.8.2 1.7.6 2.4 1.1 1.1.7 1.9 1.6 2.7 2.6 1.7 1.9 3.6 3.6 5.4 5.3 1.9 1.7 3.8 3.3 5.9 4.9 2.1 1.5 4.2 2.9 6.6 4.1.2.1.4.1.6.1.5-.1.9-.6.8-1.1-.8-5-1.6-9.9-2.3-14.9l-1-7.5c-.2-1.4-.4-2.7-.6-4.1 2.6 1.4 5.3 2.7 8.1 4 .8.3 1.6.7 2.5.9.9.2 1.7.4 2.5.6l4.9 1c3.2.6 6.4 1.4 9.5 2.5 2.1.8 4.2 1.7 6.1 2.9-2 2.7-3.9 5.5-5.8 8.3-1.9 2.8-3.8 5.7-5.7 8.6-.4.7-1 1.5-1.2 2.4-.3.9-.5 1.7-.6 2.6-.3 1.7-.6 3.4-.7 5.1l-.3 5.1c0 1.7-.1 3.4 0 5.1.2-1.7.3-3.4.5-5.1l.6-5.1c.2-1.7.5-3.4.9-5l.6-2.4c.2-.8.6-1.4 1.1-2.2 1.8-2.9 3.7-5.8 5.5-8.7 1.8-2.9 3.5-5.8 5.1-8.7.8.5 1.6 1 2.3 1.6 2.4 2 4.2 4.7 5.1 7.8l.3 1.1.2 1.2.3 2.5.5 4.9c.3 3.3.6 6.6.8 9.9l.5 9.9-40.6-.7zm-37.8-21.9c.7 0 1.2.5 1.2 1.2s-.5 1.2-1.2 1.2-1.2-.5-1.2-1.2.5-1.2 1.2-1.2zm9.1-15.2c.7 0 1.2.5 1.2 1.2s-.5 1.2-1.2 1.2-1.2-.5-1.2-1.2.6-1.2 1.2-1.2zM102 216c.7 0 1.2.5 1.2 1.2s-.5 1.2-1.2 1.2-1.2-.5-1.2-1.2.5-1.2 1.2-1.2z" fill="#18355f" stroke-width="none" opacity="1"></path></g><g id="svga-group-head" transform="matrix(1,0,0,1,0,0)"><g id="svga-group-ears-left-move" transform="matrix(1,0,0,1,0,0)"><g id="svga-group-ears-left"><path id="SvgjsPath8953" d="M61.3 90s-2.5-2.4-5.4-3.5-6.1.7-7.1 3.7c-1 2.9 1.3 15.1 5 19.5s6.2 4.8 8.7 2.5c2.5-2.3 7-10.8-1.2-22.2z" fill="#cb8d60" stroke-width="none" opacity="1"></path><path id="SvgjsPath8954" d="M62.6 91.8c.4.6.8 1.3 1.2 1.9.4.6.7 1.4 1.1 2 .3.7.6 1.4.9 2.2.2.8.5 1.5.6 2.4.1.4.2.8.2 1.2l.1 1.2c0 1.7-.2 3.4-.7 4.9-.5 1.6-1.2 3-2.2 4.2-.2.3-.5.6-.8.8-.3.2-.6.5-.9.7-.6.4-1.3.7-2.1.8-.7.1-1.5 0-2.2-.3s-1.3-.7-1.8-1.2c-.6-.5-1.1-1-1.6-1.6s-.9-1.1-1.4-1.8c-1.7-2.6-2.6-5.7-3.4-8.7-.4-1.5-.8-3-1.1-4.6s-.6-3.2-.5-4.9c0-.4.1-.9.2-1.3.1-.2.1-.4.2-.6l.3-.6c.4-.7.9-1.3 1.5-1.8 1.2-1 2.6-1.4 4-1.2.7.1 1.4.3 2 .6.6.3 1.2.7 1.8 1.1 1.2.8 2.3 1.6 3.3 2.6l1.3 2zm-4.7-4.1c-.6-.3-1.2-.6-1.8-.8-.6-.2-1.2-.3-1.8-.3-1.2.1-2.3.6-3.3 1.4-.5.4-.9.9-1.2 1.5-.2.3-.3.6-.4.9-.1.3-.2.6-.2.9-.2 1.4-.1 3 .1 4.6.2 1.5.4 3.1.8 4.6.8 3 1.9 6 3.6 8.2.9 1.1 1.9 2.1 3 2.9s2.2 1.3 3.3 1.1c.5-.1 1.1-.3 1.6-.7.5-.4 1-.8 1.4-1.3.8-1 1.5-2.3 1.9-3.7.5-1.4.7-2.8.7-4.3s-.2-3-.4-4.5c-.6-3-2-5.8-3.7-8.2-1.3-.9-2.4-1.7-3.6-2.3z" fill="#bc7746" stroke-width="none" opacity="1"></path><path id="SvgjsPath8955" d="M52.6 89.6c3.3.6 5.4 6.1 6 9.8.1.1.1.2.2.3.4.6-.4 1.2-.8.6-.5-.8-1-1.6-1.8-1.9-1.4-.5-2.1 1.1-1.8 2.6.4 1.9 1.6 3 2.6 4.4.1.1 0 .3-.1.2-1.7-1-4.3-4.8-3.1-7.2.9-1.7 2.3-1.4 3.4-.4-.8-2.1-1.4-4.3-3-5.9-.5-.5-1.5-1.4-2.2-1.3-1.3.2-1.3 2.1-1.3 3.4-.1 1.7.1 3.4.4 5 0 .2-.2.2-.3.1-.7-2.4-2-10.4 1.8-9.7z" fill="#ac642f" stroke-width="none" opacity="1"></path></g></g><g id="svga-group-ears-right-move" transform="matrix(1,0,0,1,0,0)"><g id="svga-group-ears-right"><path id="SvgjsPath8956" d="M138.7 90s2.5-2.4 5.4-3.5 6.1.7 7.1 3.7c1 2.9-1.3 15.1-5 19.5s-6.2 4.8-8.7 2.5c-2.5-2.3-7-10.8 1.2-22.2z" fill="#cb8d60" stroke-width="none" opacity="1"></path><path id="SvgjsPath8957" d="M138.6 89.9c1.1-1 2.2-1.8 3.3-2.6.6-.4 1.2-.7 1.8-1.1.6-.3 1.3-.6 2-.6 1.4-.2 2.8.3 4 1.2.6.5 1.1 1.1 1.5 1.8l.3.6c.1.2.2.4.2.6.1.4.2.9.2 1.3.1 1.7-.2 3.3-.5 4.9s-.7 3.1-1.1 4.6c-.9 3-1.8 6-3.4 8.7-.4.7-.9 1.2-1.4 1.8-.5.6-1 1.1-1.6 1.6s-1.2.9-1.8 1.2c-.7.3-1.4.4-2.2.3-.7-.1-1.4-.4-2.1-.8-.3-.2-.6-.4-.9-.7-.3-.3-.6-.5-.8-.8-1-1.2-1.7-2.6-2.2-4.2s-.7-3.3-.7-4.9l.1-1.2c0-.4.1-.8.2-1.2.1-.8.4-1.6.6-2.4.3-.7.6-1.5.9-2.2.4-.7.7-1.4 1.1-2 .4-.6.8-1.3 1.2-1.9l1.3-2zm.1.1c-1.7 2.4-3 5.2-3.7 8.2-.3 1.5-.5 3-.4 4.5s.3 2.9.7 4.3 1.1 2.6 1.9 3.7c.4.5.8 1 1.4 1.3.5.4 1 .6 1.6.7 1.1.2 2.2-.3 3.3-1.1 1-.8 2.1-1.8 3-2.9 1.7-2.3 2.8-5.2 3.6-8.2.4-1.5.6-3.1.8-4.6s.3-3.1.1-4.6c0-.4-.1-.6-.2-.9-.1-.3-.3-.6-.4-.9-.3-.6-.7-1-1.2-1.5-.9-.8-2.1-1.3-3.3-1.4-.6 0-1.2.1-1.8.3-.6.2-1.2.5-1.8.8-1.4.6-2.5 1.4-3.6 2.3z" fill="#bc7746" stroke-width="none" opacity="1"></path><path id="SvgjsPath8958" d="M147.4 89.6c-3.3.6-5.4 6.1-6 9.8-.1.1-.1.2-.2.3-.4.6.4 1.2.8.6.5-.8 1-1.6 1.8-1.9 1.4-.5 2.1 1.1 1.8 2.6-.4 1.9-1.6 3-2.6 4.4-.1.1 0 .3.1.2 1.7-1 4.3-4.8 3.1-7.2-.9-1.7-2.3-1.4-3.4-.4.8-2.1 1.4-4.3 3-5.9.5-.5 1.5-1.4 2.2-1.3 1.3.2 1.3 2.1 1.3 3.4.1 1.7-.1 3.4-.4 5 0 .2.2.2.3.1.7-2.4 2-10.4-1.8-9.7z" fill="#ac642f" stroke-width="none" opacity="1"></path></g></g><g id="svga-group-faceshape-wrap"><g id="svga-group-faceshape-single"><path id="SvgjsPath9037" d="M143.2 82v-.3c-1.3-29.9-20.7-46.4-43.2-46.4S58.1 51.8 56.9 81.7v.3c.1 9.4-.6 25.5 2 31.6 1.3 3.1 13.8 23.8 23.4 34.2 5.5 6.1 8.4 6.5 17.7 6.5 9.3 0 12.2-.4 17.7-6.5 9.6-10.4 22.1-31.1 23.4-34.2 2.6-6.1 1.9-22.2 2.1-31.6z" fill="#cb8d60" stroke-width="none" opacity="1"></path><path id="SvgjsPath9038" d="M117.7 147.8c9.6-10.4 22.1-31.1 23.4-34.2 2.6-6.1 1.9-22.2 2.1-31.6v-.3c-1.3-29.9-20.7-46.4-43.2-46.4S58.1 51.8 56.9 81.7v.3c.1 9.4-.6 25.5 2 31.6 1.3 3.1 13.8 23.8 23.4 34.2 5.5 6.1 8.4 6.5 17.7 6.5s12.2-.4 17.7-6.5zm-30.3 1.4c-1.2-.9-2.3-2-3.4-3.2-2.3-2.4-4.4-6-6.5-8.6-4.2-5.3-8.1-10.8-11.9-16.3-.9-1.4-1.9-2.8-2.8-4.2-.5-.7-.9-1.4-1.3-2.1l-.6-1c-.2-.3-.4-.6-.5-1-.6-1.3-.9-2.9-1.2-4.5s-.5-3.3-.7-4.9c-.6-6.7-.7-13.5-.8-20.3 0-6.7 1.1-13.4 3.6-19.7.1-.4.3-.8.4-1.2l.6-1.1 1.1-2.2c.3-.8.8-1.4 1.3-2.2l1.3-2.1 1.5-2c.5-.6 1-1.3 1.6-1.9 1.2-1.2 2.2-2.4 3.5-3.4.6-.5 1.3-1.1 1.9-1.6l2-1.4 1-.7c.3-.2.7-.4 1.1-.6l2.1-1.2c.7-.4 1.5-.6 2.2-1 .8-.3 1.5-.7 2.3-.9 1.6-.5 3.1-1 4.7-1.3 6.3-1.4 12.9-1.5 19.2-.1l2.4.5 2.3.7c1.6.4 3 1.1 4.5 1.7.8.3 1.4.8 2.1 1.1.7.4 1.5.7 2.1 1.2 1.3.9 2.8 1.7 4 2.8 5.1 4.1 9.3 9.5 12 15.6 2.7 6.1 4.1 12.9 4.4 19.6-.1 3.4-.1 6.8-.2 10.2-.1 3.4-.2 6.8-.6 10.2-.3 3.3-.8 6.8-1.8 9.8l-.5 1.1c-.2.3-.4.7-.6 1-.4.7-.9 1.4-1.3 2.1-.9 1.4-1.9 2.8-2.9 4.2-2 2.8-4 5.5-6 8.2-1 1.3-2 2.7-3.1 4-1 1.3-2.1 2.7-3.1 4-2.1 2.6-4.2 6.2-6.5 8.6-2.2 2.5-4.4 4.7-6.9 5.5-2.5.9-5.8.9-9.2.9-3.3 0-6.8.1-9.4-.6-1.1-.2-2.2-.8-3.4-1.7z" fill="#9d521b" stroke-width="none" opacity="1"></path></g></g><g id="svga-group-mouth-single-move" transform="matrix(1,0,0,1,0,0)"><g id="svga-group-mouth-single" transform="matrix(1,0,0,1,0,3)"><path id="SvgjsPath8909" d="M88.8 126.9c2 3.7 6.6 5.6 10.6 5.7 4.3.2 10.3-1.5 13.2-4.9.3-.4-.1-1-.6-.8-1.9.6-3.5 1.9-5.3 2.7-2 .9-4.2 1.4-6.4 1.6-4.4.2-7.9-1.6-10.9-4.6-.3-.3-.8.1-.6.3zm10.1-4.1s-.6 0-1.2-.2c-.7-.2-1.2-.5-2.9-.7-1.7-.2-2.4-.1-4.1.8s-2.5 1-3.9.6c-1.5-.4-2-2.2-2-2.2-.5 0-.7 1.6.7 2.8 1.3 1.2 5.5 1.4 8.3 1.3 3.5-.1 5.4-.2 5.4-.2h1.4s1.9 0 5.4.2c2.8.1 7-.2 8.3-1.3s1.2-2.8.7-2.8c0 0-.5 1.8-2 2.2-1.4.4-2.2.2-3.9-.6s-2.4-1-4.1-.8-2.3.5-2.9.7-1.2.2-1.2.2h-2z" fill="#a06b59" stroke-width="none" opacity="1"></path><path id="SvgjsPath8910" d="M97.3 130.4c3.6.9 9.3.2 11.8-2.7.2-.2 0-.8-.4-.7-1.8.4-3.3 1.3-5 1.8-2.1.6-4.2.8-6.4.9-.3.1-.3.6 0 .7z" fill="#d3986e" stroke-width="none" opacity="1"></path></g></g><g id="svga-group-eyes-left-move" transform="matrix(1,0,0,1,0,0)"><g id="svga-group-eyes-left"><g id="svga-group-eyesback-left"><path id="SvgjsPath8993" d="M90.4 96.5S89 94 86.9 92.3c-2.1-1.7-5.6-2.5-8.1-2.3-2.5.2-7.1 1.8-9.6 5.5 0 0 2.3 1.2 5.6 1.8 3.3.6 8.9 1.1 12 .4 3-.6 3.6-1.2 3.6-1.2z" fill="#ffffff" stroke-width="none" opacity="1"></path></g><g id="svga-group-eyesiriswrapper-left" transform="matrix(1,0,0,1,0,0)"><g id="svga-group-eyesiriscontrol-left" transform="matrix(1,0,0,1,0,0)"><g id="svga-group-eyesiris-left"><path id="SvgjsPath9099" d="M80.1 88.4c2.8 0 5.2 2.3 5.2 5.2s-2.3 5.2-5.2 5.2-5.2-2.3-5.2-5.2 2.3-5.2 5.2-5.2z" fill="#681711" stroke-width="none" opacity="1"></path><path id="SvgjsPath9100" d="M80.1 90.8c1.5 0 2.8 1.2 2.8 2.8s-1.2 2.8-2.8 2.8-2.8-1.2-2.8-2.8 1.2-2.8 2.8-2.8z" fill="#000000" stroke-width="none" opacity="1"></path><path id="SvgjsPath9101" d="m79.4 91.3-.6-.6c-.2-.2-.4-.3-.7-.3-.2 0-.5.1-.7.3-.2.2-.3.4-.3.7s.1.5.3.7l.6.6c.2.2.4.3.7.3.2 0 .5-.1.7-.3.3-.5.4-1.1 0-1.4zm2.5 4.7c.9 0 .9-1.4 0-1.4s-.8 1.4 0 1.4z" fill="#ffffff" stroke-width="none" opacity="1"></path></g></g></g><g id="svga-group-eyesfront-left"><path id="SvgjsPath9001" d="M74.8 97.4c3.3.6 8.9 1.1 12 .4s3.6-1.3 3.6-1.3-1.4-2.5-3.5-4.2-5.6-2.5-8.1-2.3c-2.5.2-6.8 1.7-9.3 5.2v-.7c0-6.4 4.7-11.5 10.6-11.5s10.6 5.2 10.6 11.5S86 106 80.1 106c-5.5 0-10.1-4.6-10.6-10.5.6.5 2.6 1.4 5.3 1.9z" fill="#cb8d60" stroke-width="none" opacity="1"></path><path id="SvgjsPath9002" d="M90.9 98c-3.6 2.6-8.4 4.1-12.9 3.7-.2 0-.2-.2 0-.2 4.7-.5 8.5-1.4 12.7-3.7.3-.2.4.1.2.2z" fill="#bc7746" stroke-width="none" opacity="1"></path><path id="SvgjsPath9003" d="M69.2 95.7c5.5 4.1 15.4 3.7 21.5 1.5.3-.1.5-.5.3-.8-4.8-9.2-16.2-9.3-22-1-.1.1.1.3.2.3zm10.9 1.9c-3.7-.2-7-1.3-10.5-2.2 5.7-6.8 15.6-6.8 20.2.9-3.2 1.1-6.4 1.5-9.7 1.3z" fill="#000000" stroke-width="none" opacity="1"></path></g></g></g><g id="svga-group-eyes-right-move" transform="matrix(1,0,0,1,0,0)"><g id="svga-group-eyes-right"><g id="svga-group-eyesback-right"><path id="SvgjsPath8994" d="M109.6 96.5s1.4-2.5 3.5-4.2c2.1-1.7 5.6-2.5 8.1-2.3 2.5.2 7.1 1.8 9.6 5.5 0 0-2.3 1.2-5.6 1.8-3.3.6-8.9 1.1-12 .4-3-.6-3.6-1.2-3.6-1.2z" fill="#ffffff" stroke-width="none" opacity="1"></path></g><g id="svga-group-eyesiriswrapper-right" transform="matrix(1,0,0,1,0,0)"><g id="svga-group-eyesiriscontrol-right" transform="matrix(1,0,0,1,0,0)"><g id="svga-group-eyesiris-right"><path id="SvgjsPath9102" d="M119.9 88.4c2.8 0 5.2 2.3 5.2 5.2s-2.3 5.2-5.2 5.2-5.2-2.3-5.2-5.2 2.4-5.2 5.2-5.2z" fill="#681711" stroke-width="none" opacity="1"></path><path id="SvgjsPath9103" d="M119.9 90.8c1.5 0 2.8 1.2 2.8 2.8s-1.2 2.8-2.8 2.8-2.8-1.2-2.8-2.8 1.3-2.8 2.8-2.8z" fill="#000000" stroke-width="none" opacity="1"></path><path id="SvgjsPath9104" d="m119.3 91.3-.6-.6c-.2-.2-.4-.3-.7-.3-.2 0-.5.1-.7.3-.2.2-.3.4-.3.7s.1.5.3.7l.6.6c.2.2.4.3.7.3.2 0 .5-.1.7-.3.3-.5.4-1.1 0-1.4zm2.5 4.7c.9 0 .9-1.4 0-1.4s-.9 1.4 0 1.4z" fill="#ffffff" stroke-width="none" opacity="1"></path></g></g></g><g id="svga-group-eyesfront-right"><path id="SvgjsPath9004" d="M125.2 97.4c-3.3.6-8.9 1.1-12 .4s-3.6-1.3-3.6-1.3 1.4-2.5 3.5-4.2 5.6-2.5 8.1-2.3c2.5.2 6.8 1.7 9.3 5.2v-.7c0-6.4-4.7-11.5-10.6-11.5s-10.6 5.2-10.6 11.5S114 106 119.9 106c5.5 0 10.1-4.6 10.6-10.5-.6.5-2.6 1.4-5.3 1.9z" fill="#cb8d60" stroke-width="none" opacity="1"></path><path id="SvgjsPath9007" d="M109.1 98c3.6 2.6 8.4 4.1 12.9 3.7.2 0 .2-.2 0-.2-4.7-.5-8.5-1.4-12.7-3.7-.3-.2-.4.1-.2.2z" fill="#bc7746" stroke-width="none" opacity="1"></path><path id="SvgjsPath9008" d="M131 95.4c-5.8-8.3-17.3-8.2-22 1-.2.3 0 .7.3.8 6.1 2.2 16 2.6 21.5-1.5.1 0 .3-.2.2-.3zm-20.8.9c4.6-7.7 14.5-7.7 20.2-.9-3.5.9-6.8 2-10.5 2.2-3.3.2-6.5-.2-9.7-1.3z" fill="#000000" stroke-width="none" opacity="1"></path></g></g></g><g id="svga-group-facehighlight-single"></g><g id="svga-group-eyebrows-left-move" transform="matrix(1,0,0,1,0,0)"><g id="svga-group-eyebrows-left-rotate" transform="matrix(1,0,0,1,0,0)"><g id="svga-group-eyebrows-left"><path id="SvgjsPath8922" d="M71.9 81.2c.2-.2.4-.3.6-.4.2-.1.4-.2.7-.3.4-.2.8-.4 1.3-.5.5-.2 1.4-.5 1.9-.2 1.7-.6 4-.2 5.6.6 2.1.2 4.3.9 5.9 2 .1.1.2.2.2.3l.9.3c1.1.4 2.3.8 3.4 1.3.1 0 .2.1.3.1.4.2.5.7.2.9-.1.1-.1.2-.3.3-.8.6-2 .2-2.9-.1-.8-.3-1.6-.7-2.2-1.3-.8-.3-1.6-.7-2.3-1.2-.1 0-.2-.1-.3-.1-1.4-.2-2.8-.8-4-1.4h-.1c-.7-.2-1.4-.3-2.2-.3-1-.1-2 .2-3-.1h-.1c-.2.1-.4.1-.6.2-.9.3-1.6.4-2.6.4-.1 0-.2-.1-.2-.2H72s-.2-.2-.1-.3z" fill="#2a232b" stroke-width="none" opacity="1"></path><path id="SvgjsPath8923" d="M76.9 79.1c3.4-.3 6.8 1.7 9.9 2.9 1.9.7 5.8 1 6.5 3.3.1.3-.3.5-.5.2-1-1.4-2.6-1.5-4.1-2-1.3-.4-2.6-.9-3.8-1.4-2.7-1.1-5.3-1.7-8-2.4-.3-.2-.2-.6 0-.6z" fill="#3a353a" stroke-width="none" opacity="1"></path><path id="SvgjsPath8924" d="M94.4 85.2c.3-1.5-2-2.1-3.1-2.5-2.7-1.1-5.4-2.3-8.2-3.1-1.7-.5-3.4-.8-5.1-.8-1.3 0-2.6.1-3.8.5-2.2.7-4.3 1.9-6.2 3.4-1 .6-2 1.3-2.8 2.1-.2.2 0 .4.2.3.1 0 .1 0 .1-.1.1.1.1.1.2.1 1.6-.7 3.1-1.8 4.8-2.5 1.6-.7 3.4-1.1 5.1-1.2h.8c2.1 0 4.1.4 6 1.3 2.6 1.2 5.1 2.8 7.7 3.8.5.2 1 .3 1.6.2 1.3.2 2.4-.3 2.7-1.5zm-16.3-5.4c1.8 0 3.6.4 5.3 1 2.2.8 4.4 1.8 6.6 2.6.4.2 2.6.7 2.8 1.3.2.7-.3.9-.8 1-.3 0-.6-.1-.8-.1-.7-.2-1.3-.6-1.9-.9-3.4-1.7-6.9-3.9-10.8-4.1h-1.1c-1.2 0-2.5.1-3.8.3.6-.2 1.1-.4 1.7-.6.8-.4 1.8-.5 2.8-.5z" fill="#1b141c" stroke-width="none" opacity="1"></path></g></g></g><g id="svga-group-eyebrows-right-move" transform="matrix(1,0,0,1,0,0)"><g id="svga-group-eyebrows-right-rotate" transform="matrix(1,0,0,1,0,0)"><g id="svga-group-eyebrows-right"><path id="SvgjsPath8925" d="M128.1 81.2c-.2-.2-.4-.3-.6-.4-.2-.1-.4-.2-.7-.3-.4-.2-.8-.4-1.3-.5-.5-.2-1.4-.5-1.9-.2-1.7-.6-4-.2-5.6.6-2.1.2-4.3.9-5.9 2-.1.1-.2.2-.2.3l-.9.3c-1.1.4-2.3.8-3.4 1.3-.1 0-.2.1-.3.1-.4.2-.5.7-.2.9.1.1.1.2.3.3.8.6 2 .2 2.9-.1.8-.3 1.6-.7 2.2-1.3.8-.3 1.6-.7 2.3-1.2.1 0 .2-.1.3-.1 1.4-.2 2.8-.8 4-1.4h.1c.7-.2 1.4-.3 2.2-.3 1-.1 2 .2 3-.1h.1c.2.1.4.1.6.2.9.3 1.6.4 2.6.4.1 0 .2-.1.2-.2h.1s.2-.2.1-.3z" fill="#2a232b" stroke-width="none" opacity="1"></path><path id="SvgjsPath8926" d="M123.1 79.1c-3.4-.3-6.8 1.7-9.9 2.9-1.9.7-5.8 1-6.5 3.3-.1.3.3.5.5.2 1-1.4 2.6-1.5 4.1-2 1.3-.4 2.6-.9 3.8-1.4 2.7-1.1 5.3-1.7 8-2.4.3-.2.2-.6 0-.6z" fill="#3a353a" stroke-width="none" opacity="1"></path><path id="SvgjsPath8927" d="M108.2 86.8c.5 0 1.1-.1 1.6-.2 2.7-1 5.1-2.7 7.7-3.8 1.9-.9 3.9-1.3 6-1.3h.8c1.8.1 3.5.6 5.1 1.2 1.7.7 3.1 1.7 4.8 2.5.1 0 .2 0 .2-.1 0 0 .1 0 .1.1.2.1.4-.1.2-.3-.8-.8-1.7-1.5-2.8-2.1-1.9-1.4-4-2.7-6.2-3.4-1.2-.4-2.5-.6-3.8-.5-1.7 0-3.4.3-5.1.8-2.8.8-5.5 2-8.2 3.1-1.1.4-3.4 1-3.1 2.5.4 1.1 1.5 1.6 2.7 1.5zm16.7-6.6c.6.2 1.2.4 1.7.6-1.3-.2-2.6-.4-3.8-.3h-1.1c-3.9.2-7.4 2.4-10.8 4.1-.6.3-1.2.7-1.9.9-.2.1-.5.1-.8.1-.6 0-1.1-.3-.8-1 .2-.6 2.4-1.1 2.8-1.3 2.2-.9 4.4-1.9 6.6-2.6 1.7-.6 3.5-1 5.3-1 .8.1 1.8.2 2.8.5z" fill="#1b141c" stroke-width="none" opacity="1"></path></g></g></g><g id="svga-group-beardwrap"><g id="svga-group-beard-single-move" transform="matrix(1,0,0,1,0,4)"><g id="svga-group-beard-single" transform="matrix(0.8499994000000002,0,0,0.8499994000000002,0,0)"></g></g></g><g id="svga-group-mustache-single-move" transform="matrix(1,0,0,1,0,2)"><g id="svga-group-mustache-single" transform="matrix(0.7999992000000002,0,0,0.7999992000000002,20.13008006223447,23.89769004228208)"><path id="SvgjsPath9129" d="M98.2 117.6c1.1.1 1.1 3.2.3 3.7s-17.2-.2-18-.7 0-1.2 1.5-1.6c1.5-.3 11-1.9 16.2-1.4zm4.9 0c-1.1.1-1.1 3.2-.3 3.7s17.2-.2 18-.7 0-1.2-1.5-1.6c-1.5-.3-11-1.9-16.2-1.4z" fill="#2a232b" stroke-width="none" opacity="1"></path><path id="SvgjsPath9130" d="M97.8 118.4c-.5.3-.9.8-1.4 1.2-.5.4-1.1.7-1.7 1-.2.1-.1.4.1.3.7-.2 1.3-.5 1.8-.9s1.1-.8 1.4-1.3c.2-.1 0-.4-.2-.3zm-1.3 0c-.8.3-1.5.8-2.3 1.1l-2.4.9c-.1.1-.1.3.1.3 1.6-.2 3.6-1 4.8-2 .2-.1 0-.4-.2-.3zm-3.8.4c-1.1.5-2.3.9-3.4 1.5-.1.1-.1.3.1.3 1.2-.1 2.5-.7 3.6-1.4.1-.3-.1-.5-.3-.4zm-4.4.3c-.5.2-1 .4-1.4.6-.5.2-1 .3-1.4.6-.2.1-.1.4.2.3 1-.1 2.1-.8 2.9-1.3 0-.1-.1-.3-.3-.2zm-4.1.6-.9.3c-.1.1 0 .3.1.2l.9-.3c.1 0 .1-.2-.1-.2zm20.3 1.2c-.2-.3-.6-.6-.8-1l-.6-1.2c-.1-.2-.3-.2-.3 0 0 .9.6 2.1 1.5 2.5.1.1.3-.1.2-.3zm2.8-.3c-.5-.2-1.1-.2-1.6-.5-.5-.2-.9-.6-1.3-1-.1-.2-.4.1-.3.2.7.9 1.9 1.8 3.2 1.7.2-.1.2-.3 0-.4zm2.6-.5c-.5-.4-1.1-.5-1.6-.8-.6-.3-1.1-.5-1.6-.8-.2-.1-.4.2-.2.4.6.3 1.2.7 1.8 1 .5.2 1 .5 1.6.6.1-.1.1-.3 0-.4zm2.9.4c-.9-.6-1.9-.9-2.9-1.5-.2-.1-.4.2-.2.3.9.6 1.9 1.2 2.9 1.4.2.1.3-.1.2-.2zm1.9.1c-.9-.5-1.9-1-2.7-1.8-.1-.1-.3 0-.2.2.7 1 1.6 1.9 2.8 1.9.1 0 .2-.2.1-.3zm1.7-.3c-.6-.3-1.1-.4-1.5-.9-.1-.1-.3 0-.2.1.3.6.9 1.2 1.7 1.1.1 0 .2-.2 0-.3zm2.4-.1c-.4-.2-.8-.3-1.1-.6-.2-.2-.5.1-.3.3.3.3.8.7 1.3.8.3-.1.3-.4.1-.5zm-36-.7c-.5.1-.9.2-1.4.5-.1.1 0 .3.1.2.5-.1.9-.3 1.3-.6.1 0 .1-.1 0-.1z" fill="#1b141c" stroke-width="none" opacity="1"></path></g></g><g id="svga-group-nose-single-move" transform="matrix(1,0,0,1,0,0)"><g id="svga-group-nose-single" transform="matrix(1,0,0,1,0,2)"><path id="SvgjsPath9140" d="M105.53 106.38c.26.82 3.73 4.55 3.79 6.57.06 2.02-2.08 4.04-4.74 2.21 0 0-2.46 1.89-4.74 1.64s-3.54-1.83-3.54-1.83-2.15.82-3.98.19c-1.83-.63-2.27-2.84-.95-4.86 1.33-2.02 3.6-5.49 4.1-7.45.52-1.96 7.09-5.62 10.06 3.53z" fill="#cb8d60" stroke-width="none" opacity="1"></path><path id="SvgjsPath9141" d="M105.49 105.94c-.16-.2-.5.06-.36.28.93 1.43 1.95 2.83 2.81 4.31.59 1 1.18 2.25.77 3.46-.67 1.98-2.42 1.87-3.83 1.11.53-.68.84-1.48.77-2.36-.02-.22-.32-.41-.48-.2-1.4 1.76-2.29 3.6-4.89 3.7-2.75.11-4.52-2.12-5.25-4.51-.06-.21-.35-.16-.36.05-.07 1.1.27 2.16.87 3.06-.4.07-.8.15-1.2.17-1.28.08-1.49-.02-2.33-1.09-.89-1.12-.89-1.4-.4-2.65.23-.58.58-1.08.91-1.61 1.08-1.68 2.04-3.39 2.75-5.26 1.43-3.73 2.05-7.86 1.36-11.81-.03-.17-.29-.12-.29.04-.01 3.2-.21 6.36-1.15 9.44-.97 3.19-2.81 5.59-4.34 8.46-.8 1.49-1.13 3.46.23 4.74 1.35 1.28 3.43.87 5.01.27.94 1.02 2.24 1.72 3.61 1.85 1.55.14 3.58-.61 4.83-1.88 1.45 1.61 4.23.86 4.96-1.19 1.09-3.12-2.3-6.24-4-8.38z" fill="#9d521b" stroke-width="none" opacity="1"></path><path id="SvgjsPath9142" d="M102.24 108.78c-.89-.83-2.3-1.07-3.3-.3-.36.28-.58.63-.67 1-.17.06-.34.16-.48.3-.76.74-.44 1.9.21 2.59.55.59 1.45.87 2.24.83.97-.05 1.85-.51 2.39-1.33.63-.95.44-2.31-.39-3.09z" fill="#d3986e" stroke-width="none" opacity="1"></path></g></g><g id="svga-group-hair-front"><path id="SvgjsPath9076" d="M61.3 97.9s.9-21.3 1.5-25.4c.5-4.2 2.5-15.6 6.4-18.7s7.1-6 16.9-4 11.4 4 18.5 2.4 11.3-3.1 11.3-3.1 5.6 1.1 9.3 2c3.6.9 6.5 4.5 9.1 10.9 2.5 6.4 5.6 18.9 4.9 27.8-.7 8.9.9 7.6.9 7.6l3.3-7.3s3.1-5.8 1.6-10.5c0 0 .7-4.2.6-6.4s-1.8-5.3-1.8-5.3.7-6.9 0-9.3-1.3-3.3-1.3-3.3.6-4.2-1.3-7.3-5.4-6-5.4-6-4.7-12-8.9-14-6-5.1-11.3-6c-5.3-.9-11.6.5-11.6.5s-2.5-2-8.2-.2c0 0-4-1.6-10.4.9s-8.7 6.4-8.7 6.4-6.4 2.2-8.2 5.3c0 0-8.2 4-10.4 10.9s-.9 10.7-.9 10.7-2.5 5.8-.7 11.5c0 0-3.1 3.3-.9 11.3 0 0-1.8 3.8.5 9.4 2.3 5.7 2.1 9 5.2 9.2z" fill="#2a232b" stroke-width="none" opacity="1"></path><path id="SvgjsPath9077" d="M144.4 67.3c.7-4.2.2-8.7-1.3-12.2 0-.1-.1-.2-.2-.2.1-1.3.1-2.6-.2-4-.8-4.1-3.6-6.7-6.7-9.3-.1 0-.1-.1-.1-.1-1.3-4.4-3.6-8.6-6.6-11.9-6.3-7.1-17.5-11.7-26.2-6-.2.2-.1.6.2.5 9.9-4 19.9-.2 26.2 8.2 5.2 6.9 6.2 14.6 5.6 23-.1.6.9.7 1.1.2 1.1-3.9 1.1-8.1.1-12.1 1.5 1.7 3.3 3.2 4.3 5.2 2.7 5.4.1 11.5-3.1 16-.4.5.5 1 .8.5 1.9-2.6 3.5-5.5 4.2-8.6.6 3.4 1 6.6.4 10.1-.6 3.4-2.2 6.3-3.6 9.5-.2.4.3.9.7.5 1.8-1.9 3-4.4 3.8-7.2.4 2 .7 3.9.4 6-.2 2.2-1.2 4.1-1.5 6.2 0 .3.4.5.6.3.4-.4.8-.9 1.1-1.5 0 3.4-.7 6.4-1.9 9.6-.5 1.3-1.7 4.8-3 6.6.7-10.4-.3-22-3.5-31.8-1.7-5.2-4.7-10.9-9.5-13.5.6 0 1.3-.1 1.9-.2.5-.1.5-.9 0-1-5.9-1.1-11.6-1.8-16.8-5.2-6.8-4.5-11.4-12.8-9.3-21 .1-.5-.6-.7-.8-.2-3.9 9.8 3.3 20 12.6 24.8-2.1.7-4.3 1.3-6.4 1.8-8.5 0-17.6-2.6-20.1-11.9-2.8-10.2 6.4-18 16.1-15.9.4.1.6-.5.2-.6-3-1.2-5.9-1.2-8.6-.3-6.4-.8-13.1 1-17.6 5.7h-.2c-3.6 2.1-7.2 4.2-9.8 7.2-7.6 3.3-14.3 13.7-11.7 21.8-1.1 3.3-1.4 7.2-.8 10.9-1.5 3-2.1 8.1-.8 11.8-1.4 4.4.5 9.3 2.2 13.4 1.2 2.8 1 5.2 4 6.4.2.1.4.1.5-.1.4-.1.7-.3.8-.8.1-11.4.8-22.8 3.6-33.8 1.2-4.8 2.8-10.3 7.4-12.8 5.2-2.9 12-1.2 17.4.2h.1c8 3.5 18.2 2.3 25.6-2.1 2.5 1 5.1 1.7 7.6 1.9 7.9 2.9 10.9 12.9 12.2 20.6 1.6 8.8 2.4 17.4 1.8 26.3-.1.8.9.9 1.3.5 2.6-1.3 2.5-3.6 3.6-6.3 1.8-4.1 3.5-9.1 2.2-13.4 1.8-3.6 1.2-8.7-.3-11.7zM66.2 57c-5.3 12.1-5.6 27-5.7 40-1.4-1.6-2.7-5.5-3.3-7-1.2-3.2-2-6.2-1.9-9.6.3.6.7 1.1 1.1 1.5.2.2.7.1.6-.3-.3-2.1-1.3-4.1-1.5-6.2-.2-2.1 0-4 .5-6 .7 2.7 2 5.3 3.8 7.2.4.4.9-.1.7-.5-1.4-3.2-3-6-3.6-9.5-.5-2.9-.3-5.7.1-8.6.7 1.3 1.7 2.6 3 3.7.4.3 1.1-.1.8-.6-6.4-9-2.3-19 5.9-24.7-.6 1-1.1 2.2-1.4 3.4-1.1 4.2.7 9.5 5 11.1.4.2.7-.4.4-.7-4.3-4.4-5.8-9.6-1.6-15 .2-.2.3-.4.5-.5.1 0 .1-.1.2-.1.1-.1.2-.2.2-.3 1.7-1.7 3.9-2.8 5.9-4.2-3.5 5.8-2.8 13.4 2.9 17.4.3.2.7-.3.4-.5-5-5-5.6-12.1-1.2-17.7 1.5-1.9 3.3-3.3 5.2-4.3-5.4 5.2-4.8 15.3-.2 20.9 1.1 1.4 2.3 2.5 3.7 3.5-8-2.2-16.7-1-20.5 7.6zm21-9.5c-8.1-6.1-8.7-18.1-.3-24 2.2-.6 4.5-1 6.8-1.1-5.1 2.5-8.7 8.2-8.1 14.3.9 8.2 7.6 13.5 15.1 14.9-4.6.2-9.2-.8-13.5-4.1z" fill="#1b141c" stroke-width="none" opacity="1"></path><path id="SvgjsPath9078" d="M127.9 46.8c-5.5 0-10.3-2.4-13.9-6.4-3.4-3.7-8.8-10.4-6.5-15.8.2-.4-.3-.7-.5-.3-2.8 5.2 1.5 11 4.7 15 4 5 9.6 8.8 16.2 8.1.4 0 .4-.6 0-.6zM105 44.4c-4.9-4.8-10.2-10.6-7-18.1.2-.4-.3-.7-.5-.3-3.8 7.3 1.3 14.6 7.2 18.8.2.2.5-.2.3-.4zm-.4 2.1c-6.3-4.2-12.4-9.2-12.3-17.4 0-.3-.5-.3-.5 0-.4 8.2 5.5 14.6 12.6 17.8.2 0 .4-.2.2-.4zm2 .8C100.8 47 95.8 45 92 40.5c-.2-.2-.6.1-.4.4 3.6 4.4 9.2 7.3 14.9 7 .4-.1.4-.5.1-.6zm-17.4-2.1C84 40 81.4 32.7 87 26.6c.3-.4-.2-.9-.5-.5-6.2 5.6-4.3 15.4 2.2 20 .4.2.9-.5.5-.9zM80.6 44c-3-4-3.9-8.9-1.8-13.5.2-.3-.3-.6-.5-.3-2.4 4.6-1.9 10.4 1.9 14.1.2.2.5 0 .4-.3zm-8.7-8.3c.1-.3-.3-.4-.4-.1-.7 2.6-.8 5.6.4 8 .1.3.6.1.5-.2-.7-2.6-1.1-5-.5-7.7zm0 10.2c-.8-1-1.6-1.9-2.1-3.1-.1-.2-.4 0-.3.1.5 1.2 1.2 2.4 2.3 3.2 0 .1.2-.1.1-.2zM63.8 53c-2.1-3.9-2.4-7.4-1.2-11.6.1-.4-.5-.6-.6-.2-1.3 3.8-1.9 9.1 1.3 12.2.2.4.7 0 .5-.4zm-2 3.6c-1.5-2.5-2.4-4.8-2.2-7.7 0-.2-.3-.2-.4 0-.3 2.8.2 5.9 2.2 8 .3.2.6 0 .4-.3zm-2.2 15.1c-1.2-3.3-2-6.4-1.7-10.1 0-.2-.3-.3-.4 0-.5 3.5-.3 7.3 1.5 10.4.2.2.7 0 .6-.3zM56 74.4c-.1-.2-.3 0-.3.1.4 1.1.7 2.2 1.3 3.2.1.2.4.1.3-.1-.2-1.1-.8-2.2-1.3-3.2zM139.8 52c-.2-1.5-.3-4.5-2.2-4.6-.3 0-.4.4-.1.5 1.6.8 1.5 5.2 1.5 6.6-.1 2.1-.6 4-1.3 5.9-.1.3.4.5.6.2 1.3-2.6 1.8-5.6 1.5-8.6zm2.3 9.7c-.1-.4-.6-.2-.6.2.6 3.1-.3 5.8-1.9 8.4-.2.3.2.6.5.4 2.2-2.4 2.8-6 2-9zm1.2 11.7c0-.3-.5-.3-.5 0 .2 1.8-.1 3.5-.5 5.2 0 .2.2.3.3.1.8-1.6.9-3.5.7-5.3zm-22.7-46.8c-.3-.1-.4.3-.1.4 7.2 3 11.4 13.5 13.6 20.3.1.3.5.2.4-.1-1.7-7.2-6.5-17.8-13.9-20.6z" fill="#3a353a" stroke-width="none" opacity="1"></path></g><g id="svga-group-glasses-single-move" transform="matrix(1,0,0,1,0,0)"><g id="svga-group-glasses-single"></g></g></g></g></g><rect id="svga-credit-rect" width="200" height="15" x="0" y="185" fill="#ecf0f1" opacity="0.5" style="display: none;"></rect><text id="svga-credit-text" font-family="Avenir Next, Roboto, Helvetica, Arial, sans-serif" font-size="10px" text-anchor="start" font-weight="400" size="10px" anchor="start" weight="400" fill="#333333" x="33.40313720703125" y="182.60824728012085" style="display: none;"><tspan id="SvgjsTspan8903" dy="13" x="33.40313720703125">Created on AvatarMaker.com</tspan></text></g><defs id="SvgjsDefs8850"></defs></svg>