<?xml version="1.0" encoding="UTF-8"?>
<svg xmlns="http://www.w3.org/2000/svg" xmlns:xlink="http://www.w3.org/1999/xlink" width="400px" height="400px" viewBox="0 0 400 400" version="1.1">
<g id="surface1">
<rect x="0" y="0" width="400" height="400" style="fill:rgb(94.509804%,83.137255%,68.627451%);fill-opacity:1;stroke:none;"/>
<path style=" stroke:none;fill-rule:nonzero;fill:rgb(88.627451%,74.117647%,55.294118%);fill-opacity:1;" d="M 0 0 L 0 20.199219 L 153 200 Z M 0 68.199219 L 0 100 L 153 216.601562 Z M 0 142.398438 L 0 169.601562 L 153 236.398438 Z M 76.601562 0 L 42.199219 0 L 176.601562 216.601562 Z M 149.199219 0 L 122 0 L 176.398438 180 Z M 0 216.601562 L 0 236.398438 L 153 256.199219 Z M 0 288 L 0 315.199219 L 153 271 Z M 0 359.398438 L 0 400 L 176.601562 271 Z M 76.601562 400 L 109.398438 400 L 162.398438 315.199219 Z M 247 200 L 400 20.199219 L 400 0 Z M 400 100 L 400 68.199219 L 247 216.601562 Z M 400 169.601562 L 400 142.398438 L 247 236.398438 Z M 357.800781 0 L 323.398438 0 L 223.398438 216.601562 Z M 278 0 L 250.800781 0 L 223.601562 180 Z M 400 236.398438 L 400 216.601562 L 247 256 Z M 400 315.199219 L 400 288 L 247 271 Z M 400 400 L 400 359.398438 L 223.398438 271 Z M 290.601562 400 L 323.398438 400 L 237.398438 315.199219 Z M 223.398438 0 L 176.601562 0 L 200 200 Z M 153 400 L 176.398438 400 L 189.199219 283 Z M 223.398438 400 L 246.800781 400 L 210.398438 283 Z M 189.398438 400 L 210.601562 400 L 200 315.199219 Z M 189.398438 400 "/>
<path style=" stroke:none;fill-rule:nonzero;fill:rgb(79.607843%,55.294118%,37.647059%);fill-opacity:1;" d="M 339.703125 368.175781 C 316.816406 354.316406 289.304688 351.796875 274.605469 342.765625 C 259.90625 333.738281 255.496094 332.898438 255.914062 305.386719 C 256.335938 277.878906 259.90625 216.347656 259.90625 216.347656 L 139.996094 216.347656 C 139.996094 216.347656 143.355469 278.085938 143.984375 305.386719 C 144.613281 332.6875 139.996094 333.738281 125.296875 342.765625 C 110.59375 351.796875 83.085938 354.105469 60.195312 368.175781 C 37.515625 382.035156 39.195312 407.867188 39.195312 407.867188 L 39.195312 449.238281 L 361.125 449.238281 L 361.125 407.867188 C 360.914062 407.867188 362.59375 382.035156 339.703125 368.175781 Z M 339.703125 368.175781 "/>
<path style=" stroke:none;fill-rule:nonzero;fill:rgb(67.45098%,39.215686%,18.431373%);fill-opacity:1;" d="M 237.226562 325.96875 C 243.316406 319.457031 249.824219 311.058594 256.125 302.65625 C 256.753906 274.097656 260.113281 216.558594 260.113281 216.558594 L 139.996094 216.558594 C 139.996094 216.558594 143.144531 274.097656 143.984375 302.65625 C 150.285156 311.265625 156.796875 319.457031 162.886719 325.96875 C 174.433594 338.777344 180.523438 339.617188 200.054688 339.617188 C 219.585938 339.617188 225.675781 338.777344 237.226562 325.96875 Z M 237.226562 325.96875 "/>
<path style=" stroke:none;fill-rule:nonzero;fill:rgb(61.568627%,32.156863%,10.588235%);fill-opacity:1;" d="M 361.125 401.988281 C 360.914062 400.097656 360.496094 397.996094 360.074219 396.105469 C 359.234375 392.328125 357.765625 388.546875 355.875 384.976562 C 355.035156 383.296875 353.984375 381.617188 352.726562 379.9375 C 351.675781 378.257812 350.414062 376.785156 348.945312 375.316406 C 346.214844 372.378906 343.066406 369.855469 339.703125 367.96875 C 332.355469 363.558594 324.585938 360.195312 316.394531 357.257812 C 312.40625 355.785156 308.414062 354.527344 304.214844 353.265625 C 300.226562 352.007812 296.023438 350.746094 292.035156 349.488281 C 288.046875 348.226562 284.054688 346.757812 280.273438 344.867188 C 278.386719 344.027344 276.496094 342.976562 274.816406 341.925781 L 269.355469 338.566406 C 265.785156 336.257812 262.425781 333.945312 260.535156 330.378906 C 260.113281 329.535156 259.695312 328.695312 259.273438 327.648438 C 258.855469 326.597656 258.644531 325.757812 258.433594 324.707031 C 258.015625 322.816406 257.804688 320.71875 257.59375 318.617188 C 257.386719 314.417969 257.386719 310.21875 257.59375 306.015625 C 257.804688 301.816406 258.015625 297.617188 258.226562 293.207031 C 258.644531 284.808594 259.066406 276.195312 259.484375 267.796875 L 262.214844 216.765625 L 262.425781 214.246094 L 259.90625 214.246094 C 249.824219 214.246094 239.953125 214.457031 229.875 214.457031 L 200.054688 214.667969 L 139.996094 215.507812 L 138.945312 215.507812 L 138.945312 216.558594 C 140.203125 237.558594 141.464844 258.347656 142.304688 279.347656 C 142.726562 289.847656 143.144531 300.347656 143.144531 310.847656 C 143.144531 313.367188 142.933594 316.097656 142.726562 318.617188 C 142.515625 321.136719 142.09375 323.65625 141.464844 326.175781 C 140.835938 328.488281 139.574219 330.796875 137.894531 332.6875 C 136.214844 334.578125 134.113281 336.046875 132.015625 337.308594 C 129.914062 338.777344 127.605469 340.035156 125.296875 341.296875 C 124.246094 341.925781 122.984375 342.558594 121.933594 343.1875 C 120.886719 343.816406 119.625 344.238281 118.363281 344.867188 C 113.535156 346.757812 108.703125 348.226562 103.664062 349.695312 C 93.585938 352.636719 83.296875 355.367188 73.425781 359.355469 C 68.59375 361.457031 63.765625 363.765625 59.144531 366.496094 C 54.523438 369.226562 50.113281 373.007812 46.753906 377.417969 C 43.394531 381.828125 40.875 386.65625 39.195312 391.90625 C 38.355469 394.425781 37.726562 397.15625 37.304688 399.886719 C 37.09375 401.148438 36.886719 402.617188 36.886719 404.085938 C 36.886719 404.71875 36.886719 405.558594 36.675781 406.1875 L 36.675781 450.078125 L 361.335938 450.078125 L 361.546875 408.078125 C 361.546875 405.765625 361.335938 403.878906 361.125 401.988281 Z M 41.714844 445.039062 L 41.714844 404.085938 C 41.714844 402.828125 41.925781 401.566406 42.136719 400.308594 C 42.554688 397.785156 42.976562 395.476562 43.816406 392.957031 C 45.285156 388.128906 47.59375 383.71875 50.535156 379.726562 C 53.476562 375.738281 57.253906 372.378906 61.453125 369.855469 C 65.863281 367.128906 70.484375 364.816406 75.105469 362.71875 C 84.554688 358.515625 94.636719 355.578125 104.714844 352.425781 C 109.753906 350.746094 114.796875 349.277344 119.625 346.96875 C 120.886719 346.335938 122.144531 345.917969 123.195312 345.285156 C 123.824219 344.867188 124.453125 344.65625 124.875 344.238281 C 125.503906 343.816406 126.136719 343.605469 126.554688 343.1875 C 128.863281 341.71875 130.964844 340.457031 133.273438 338.988281 C 135.585938 337.515625 137.683594 335.835938 139.574219 333.738281 C 140.414062 332.6875 141.253906 331.425781 141.886719 330.167969 C 142.515625 328.90625 142.933594 327.648438 143.355469 326.386719 C 144.195312 323.65625 144.40625 321.136719 144.613281 318.40625 C 144.824219 315.675781 144.824219 313.15625 144.824219 310.425781 C 144.824219 307.695312 144.824219 305.175781 144.613281 302.445312 L 144.40625 294.675781 L 143.773438 278.925781 L 141.253906 217.605469 L 200.054688 218.445312 L 230.085938 218.867188 C 239.324219 218.867188 248.355469 219.078125 257.59375 219.078125 C 256.753906 235.246094 255.914062 251.417969 255.285156 267.585938 C 255.074219 276.195312 254.65625 284.597656 254.445312 293.207031 C 254.445312 297.40625 254.234375 301.816406 254.234375 306.015625 C 254.234375 310.21875 254.234375 314.628906 254.65625 319.035156 C 254.863281 321.136719 255.285156 323.445312 255.703125 325.546875 C 255.914062 326.597656 256.335938 327.648438 256.753906 328.695312 C 257.175781 329.746094 257.59375 330.796875 258.226562 331.847656 C 258.855469 332.898438 259.484375 333.738281 260.324219 334.578125 C 261.164062 335.417969 262.003906 336.257812 262.84375 336.886719 C 264.523438 338.355469 266.414062 339.40625 268.304688 340.457031 L 273.765625 343.605469 C 275.65625 344.65625 277.546875 345.707031 279.644531 346.546875 C 283.636719 348.226562 287.625 349.488281 291.824219 350.746094 C 300.015625 353.058594 308.203125 355.367188 316.394531 358.097656 C 320.386719 359.355469 324.375 361.035156 328.363281 362.71875 C 332.144531 364.398438 335.925781 366.496094 339.703125 368.597656 C 343.066406 370.695312 346.003906 373.21875 348.734375 375.945312 C 349.996094 377.417969 351.253906 378.886719 352.304688 380.566406 C 353.355469 382.246094 354.40625 383.925781 355.246094 385.605469 C 356.925781 389.175781 358.394531 392.746094 359.234375 396.527344 C 359.65625 398.417969 359.863281 400.308594 360.074219 402.195312 C 360.285156 403.878906 360.285156 445.457031 360.285156 447.136719 C 333.824219 446.71875 41.714844 445.039062 41.714844 445.039062 Z M 41.714844 445.039062 "/>
<path style=" stroke:none;fill-rule:nonzero;fill:rgb(67.45098%,39.215686%,18.431373%);fill-opacity:1;" d="M 155.324219 317.148438 C 156.375 327.226562 158.894531 336.886719 161.835938 346.335938 C 163.515625 351.167969 165.195312 355.996094 167.296875 360.828125 C 168.976562 365.027344 170.863281 369.648438 173.804688 373.21875 C 174.433594 374.058594 175.90625 373.21875 175.695312 372.167969 C 174.644531 367.546875 172.335938 363.136719 170.65625 358.726562 C 168.765625 354.105469 167.085938 349.488281 165.40625 344.867188 C 162.253906 335.628906 159.523438 326.175781 156.796875 316.9375 C 156.375 316.097656 155.113281 316.308594 155.324219 317.148438 Z M 242.054688 315.046875 C 239.324219 332.265625 233.863281 348.855469 230.714844 365.867188 C 230.503906 366.707031 231.554688 366.917969 231.976562 366.285156 C 238.484375 350.117188 240.585938 332.476562 242.683594 315.257812 C 242.476562 314.835938 242.054688 314.835938 242.054688 315.046875 Z M 187.875 340.035156 C 185.984375 347.597656 191.863281 358.097656 200.894531 355.996094 C 201.945312 355.785156 201.734375 354.316406 200.894531 353.898438 C 197.953125 352.847656 194.804688 352.007812 192.703125 349.488281 C 190.394531 346.96875 189.554688 343.398438 189.765625 340.035156 C 189.765625 339.195312 188.085938 338.988281 187.875 340.035156 Z M 187.875 340.035156 "/>
<path style=" stroke:none;fill-rule:nonzero;fill:rgb(22.352941%,33.333333%,49.411765%);fill-opacity:1;" d="M 368.683594 450.078125 C 368.683594 413.328125 365.324219 389.808594 365.324219 389.808594 C 358.605469 357.886719 318.074219 355.996094 300.015625 350.957031 C 294.136719 349.277344 276.285156 339.617188 276.285156 339.617188 C 267.886719 321.558594 257.175781 311.476562 257.175781 311.476562 C 257.175781 311.476562 254.234375 348.226562 241.84375 356.835938 C 235.964844 360.828125 223.15625 363.347656 218.324219 367.335938 C 213.285156 371.535156 205.933594 388.757812 205.933594 388.757812 C 205.933594 388.757812 188.085938 362.507812 183.464844 362.925781 C 173.59375 363.976562 166.664062 362.925781 164.144531 362.085938 C 150.074219 357.886719 143.566406 312.105469 143.566406 312.105469 C 143.566406 312.105469 129.914062 321.765625 123.824219 338.148438 C 117.105469 341.085938 107.234375 345.707031 98.835938 348.855469 C 81.195312 355.367188 41.085938 360.617188 34.785156 390.015625 C 34.785156 390.015625 31.425781 413.535156 31.425781 450.289062 Z M 368.683594 450.078125 "/>
<path style=" stroke:none;fill-rule:nonzero;fill:rgb(9.411765%,20.784314%,37.254902%);fill-opacity:1;" d="M 369.316406 429.078125 C 369.316406 422.148438 369.105469 415.007812 368.683594 408.078125 C 368.476562 404.507812 368.265625 401.148438 368.054688 397.578125 L 367.636719 392.328125 L 367.425781 389.597656 C 367.214844 388.757812 367.003906 387.707031 366.796875 386.867188 C 364.90625 379.726562 360.914062 373.21875 355.453125 368.175781 C 349.996094 363.347656 343.484375 359.777344 336.765625 357.46875 C 330.046875 354.945312 323.113281 353.265625 316.183594 351.796875 L 305.894531 349.695312 C 304.214844 349.277344 302.535156 348.855469 301.066406 348.4375 C 299.59375 348.015625 298.125 347.386719 296.445312 346.546875 C 290.566406 343.816406 284.683594 340.667969 278.804688 337.515625 C 276.496094 332.476562 273.765625 327.648438 270.613281 323.027344 C 268.933594 320.507812 267.253906 318.195312 265.363281 315.886719 C 263.476562 313.578125 261.585938 311.476562 259.273438 309.167969 C 258.855469 308.746094 258.226562 308.535156 257.59375 308.328125 C 256.125 308.117188 254.65625 309.378906 254.65625 310.847656 L 254.65625 311.058594 C 253.816406 319.035156 252.554688 327.226562 250.453125 334.996094 C 249.40625 338.988281 248.144531 342.765625 246.464844 346.335938 C 244.785156 349.90625 242.683594 353.058594 239.746094 354.738281 C 236.59375 356.628906 232.605469 357.886719 228.824219 359.355469 C 226.933594 359.988281 224.835938 360.828125 222.945312 361.667969 C 220.84375 362.507812 218.953125 363.558594 216.855469 365.027344 C 214.753906 366.917969 213.703125 368.597656 212.445312 370.488281 C 211.183594 372.378906 210.136719 374.265625 209.296875 375.945312 L 205.515625 383.507812 C 200.894531 377.207031 196.273438 370.90625 190.816406 365.238281 C 189.976562 364.398438 189.136719 363.558594 188.085938 362.71875 C 187.664062 362.296875 187.035156 361.878906 186.40625 361.457031 C 185.773438 361.035156 185.144531 360.617188 183.886719 360.617188 L 182.625 360.617188 L 181.785156 360.828125 L 180.105469 361.035156 C 179.054688 361.246094 177.796875 361.246094 176.746094 361.246094 C 174.433594 361.246094 172.335938 361.246094 170.023438 361.035156 C 167.925781 360.828125 165.40625 360.617188 163.726562 359.988281 C 162.046875 359.355469 160.363281 357.886719 159.105469 356.207031 C 157.84375 354.527344 156.585938 352.636719 155.535156 350.746094 C 153.433594 346.757812 151.753906 342.558594 150.496094 338.355469 C 147.765625 329.746094 145.875 320.71875 144.40625 311.898438 C 144.40625 311.6875 144.195312 311.6875 144.195312 311.476562 C 143.773438 311.058594 143.144531 311.058594 142.726562 311.265625 C 140.414062 312.945312 138.316406 314.835938 136.425781 316.9375 C 134.535156 319.035156 132.644531 321.136719 130.964844 323.238281 C 129.285156 325.546875 127.816406 327.855469 126.34375 330.167969 C 124.875 332.476562 123.824219 334.785156 122.773438 337.308594 C 114.796875 340.878906 106.605469 344.445312 98.414062 347.386719 C 90.015625 350.328125 81.40625 352.21875 72.796875 354.945312 C 64.183594 357.675781 55.574219 361.035156 48.015625 366.496094 C 44.234375 369.226562 40.875 372.585938 37.933594 376.367188 C 35.203125 380.148438 33.105469 384.765625 32.054688 389.386719 L 32.054688 389.597656 C 31.425781 394.636719 30.796875 399.675781 30.375 404.71875 C 29.953125 409.757812 29.535156 414.796875 29.324219 419.835938 C 29.113281 424.878906 28.695312 429.917969 28.695312 434.957031 C 28.484375 439.996094 28.484375 445.039062 28.484375 450.078125 C 28.484375 451.757812 29.746094 453.015625 31.425781 453.015625 L 116.476562 453.4375 C 144.824219 453.4375 173.175781 453.226562 201.316406 453.015625 L 285.734375 451.96875 L 327.523438 451.335938 L 369.105469 450.496094 C 369.316406 443.148438 369.316406 436.007812 369.316406 429.078125 Z M 242.476562 359.566406 C 244.574219 358.308594 246.464844 356.417969 247.726562 354.527344 C 249.195312 352.636719 250.246094 350.746094 251.296875 348.648438 C 253.183594 344.65625 254.65625 340.457031 255.703125 336.46875 C 257.386719 330.167969 258.433594 324.078125 259.484375 317.777344 C 259.90625 318.40625 260.324219 318.828125 260.953125 319.457031 C 262.636719 321.558594 264.316406 323.867188 265.785156 326.175781 C 268.933594 330.796875 271.664062 335.628906 273.976562 340.667969 C 274.183594 341.085938 274.605469 341.507812 275.234375 341.925781 C 275.65625 342.136719 276.285156 342.347656 276.703125 342.765625 C 277.125 345.707031 277.335938 348.648438 277.546875 351.585938 L 278.804688 367.335938 C 279.433594 376.578125 280.273438 386.027344 281.113281 395.265625 C 277.546875 393.585938 273.976562 391.488281 270.824219 389.386719 C 266.414062 386.445312 262.214844 383.296875 258.015625 380.148438 C 253.816406 376.785156 249.824219 373.636719 245.835938 369.855469 C 243.945312 367.96875 242.054688 366.078125 239.746094 364.605469 C 238.273438 363.765625 236.59375 362.925781 234.703125 362.71875 C 237.226562 362.085938 239.953125 361.035156 242.476562 359.566406 Z M 196.066406 399.675781 C 194.804688 396.105469 193.335938 392.746094 191.445312 389.386719 C 189.765625 386.238281 187.875 383.085938 185.566406 380.355469 C 186.40625 380.355469 187.246094 380.566406 188.085938 380.566406 C 189.976562 380.777344 192.074219 380.777344 193.964844 380.988281 L 197.535156 380.988281 C 199.636719 383.925781 201.523438 386.65625 203.414062 389.597656 C 200.894531 392.535156 198.585938 395.6875 196.273438 398.835938 C 196.273438 399.257812 196.273438 399.257812 196.066406 399.675781 Z M 176.746094 365.027344 C 178.003906 365.027344 179.054688 365.027344 180.316406 364.816406 L 181.996094 364.605469 L 183.253906 364.605469 C 183.253906 364.605469 183.675781 364.816406 183.886719 365.027344 C 184.304688 365.238281 184.726562 365.65625 184.933594 365.867188 C 185.773438 366.496094 186.40625 367.335938 187.246094 368.175781 C 190.605469 371.957031 193.964844 376.15625 196.90625 380.355469 C 193.964844 379.9375 191.023438 379.308594 187.875 378.886719 C 184.09375 378.257812 180.105469 377.628906 176.324219 376.785156 C 172.546875 375.945312 168.765625 375.105469 164.984375 374.058594 C 161.414062 373.007812 157.84375 372.167969 154.484375 370.90625 L 154.695312 370.695312 C 156.375 368.597656 158.265625 366.707031 160.363281 365.238281 C 161.414062 364.605469 162.464844 363.976562 163.515625 363.558594 C 165.613281 364.1875 167.296875 364.398438 169.394531 364.605469 C 172.125 365.027344 174.433594 365.027344 176.746094 365.027344 Z M 124.664062 338.355469 C 125.714844 335.835938 126.765625 333.316406 128.023438 331.007812 C 129.285156 328.695312 130.753906 326.386719 132.433594 324.285156 C 134.113281 322.1875 135.796875 320.085938 137.894531 318.195312 C 139.363281 316.726562 141.046875 315.257812 142.515625 313.996094 C 143.773438 322.605469 145.453125 331.007812 147.976562 339.195312 C 149.234375 343.605469 150.703125 348.015625 152.804688 352.21875 C 153.855469 354.316406 155.113281 356.417969 156.585938 358.308594 C 158.054688 360.195312 159.945312 362.085938 162.464844 363.136719 C 162.886719 363.347656 163.09375 363.347656 163.515625 363.347656 C 162.464844 363.765625 161.414062 364.1875 160.574219 364.816406 C 158.265625 366.078125 156.375 368.175781 154.484375 370.066406 C 150.703125 373.636719 146.503906 376.996094 142.304688 380.355469 C 138.105469 383.71875 133.90625 386.867188 129.496094 389.597656 C 126.136719 391.695312 122.566406 393.796875 118.996094 395.476562 C 119.835938 386.238281 120.675781 376.785156 121.304688 367.546875 L 122.355469 351.796875 C 122.773438 347.597656 122.984375 343.1875 123.824219 338.988281 C 124.246094 338.777344 124.453125 338.566406 124.664062 338.355469 Z M 115.003906 446.71875 L 34.15625 447.136719 C 34.15625 438.105469 34.363281 429.078125 34.574219 420.046875 C 34.785156 415.007812 34.996094 409.96875 35.414062 405.136719 C 35.835938 400.097656 36.253906 395.265625 36.675781 390.226562 C 37.515625 386.238281 39.195312 382.246094 41.503906 378.886719 C 43.816406 375.527344 46.753906 372.378906 50.324219 369.648438 C 50.953125 369.226562 51.375 368.808594 52.003906 368.386719 C 55.363281 374.476562 58.933594 380.355469 62.503906 386.238281 C 66.285156 392.328125 70.066406 398.417969 74.054688 404.507812 C 75.105469 406.1875 75.945312 407.445312 76.363281 409.128906 C 76.996094 410.808594 77.414062 412.488281 77.625 414.167969 C 78.464844 417.527344 78.886719 421.097656 79.304688 424.667969 L 80.566406 435.378906 C 80.984375 438.945312 81.195312 442.515625 81.613281 446.085938 L 81.613281 435.378906 L 80.984375 424.667969 C 80.773438 421.097656 80.144531 417.527344 79.515625 413.957031 C 79.09375 412.066406 78.675781 410.386719 78.253906 408.496094 C 77.835938 406.605469 76.785156 404.925781 75.734375 403.457031 C 71.746094 397.367188 67.964844 391.277344 63.765625 385.398438 C 59.984375 379.726562 55.996094 374.058594 52.003906 368.386719 C 58.515625 363.765625 66.074219 360.617188 73.636719 357.886719 C 82.035156 354.945312 90.644531 352.847656 99.253906 349.695312 C 107.445312 346.335938 115.636719 342.765625 123.613281 338.988281 C 122.773438 343.1875 122.144531 347.386719 121.515625 351.585938 L 119.414062 367.335938 C 117.945312 377.835938 116.265625 388.128906 114.585938 398.628906 C 114.585938 399.046875 114.585938 399.46875 114.796875 399.886719 C 115.214844 400.9375 116.476562 401.355469 117.523438 400.9375 C 122.566406 398.417969 126.976562 395.476562 131.386719 392.328125 C 135.585938 388.96875 139.785156 385.605469 143.773438 382.035156 C 147.554688 378.46875 151.546875 375.105469 154.90625 371.117188 C 158.054688 373.007812 161.625 374.476562 164.984375 375.738281 C 168.765625 376.996094 172.546875 378.046875 176.324219 378.886719 C 179.265625 379.515625 182.203125 379.9375 184.933594 380.148438 C 186.195312 383.71875 187.664062 387.078125 189.554688 390.226562 C 191.445312 393.585938 193.335938 396.738281 195.855469 399.675781 C 195.644531 399.886719 195.433594 400.308594 195.433594 400.726562 C 195.226562 401.566406 195.226562 402.195312 195.015625 403.035156 C 194.804688 404.507812 194.804688 405.976562 194.804688 407.445312 L 194.804688 416.058594 C 195.015625 421.726562 195.226562 427.398438 195.644531 433.066406 L 196.273438 441.675781 C 196.484375 443.566406 196.695312 445.457031 196.90625 447.136719 C 169.605469 446.925781 142.304688 446.71875 115.003906 446.71875 Z M 198.796875 447.347656 L 197.324219 447.347656 L 197.324219 433.277344 L 196.90625 416.265625 C 196.90625 413.328125 196.695312 410.597656 196.695312 407.867188 C 196.695312 406.398438 196.695312 405.136719 196.90625 403.667969 C 197.113281 402.195312 197.113281 401.148438 197.953125 399.886719 C 199.214844 397.367188 200.894531 395.058594 202.574219 392.746094 L 204.253906 390.4375 C 204.464844 390.648438 204.675781 390.855469 205.09375 391.066406 C 206.355469 391.695312 207.824219 391.066406 208.453125 389.808594 C 209.714844 387.078125 211.183594 384.347656 212.445312 381.617188 C 214.964844 381.617188 217.273438 381.40625 219.585938 380.988281 C 222.523438 380.566406 225.464844 379.726562 228.40625 378.886719 C 224.625 383.925781 221.054688 389.175781 217.484375 394.425781 C 215.59375 397.15625 213.703125 399.886719 211.816406 402.828125 L 210.34375 404.925781 L 209.714844 405.976562 C 209.503906 406.1875 209.085938 407.027344 209.085938 407.445312 C 208.664062 409.335938 208.664062 411.015625 208.453125 412.695312 C 208.246094 419.417969 208.664062 426.136719 209.085938 432.855469 C 209.503906 437.898438 209.925781 442.9375 210.554688 447.765625 Z M 283.214844 448.398438 L 211.183594 447.558594 L 210.976562 442.515625 L 210.765625 432.4375 C 210.554688 425.71875 210.34375 418.996094 210.554688 412.488281 C 210.554688 410.808594 210.765625 409.128906 210.976562 407.65625 C 211.183594 407.238281 210.976562 407.238281 211.394531 406.816406 L 212.023438 405.765625 L 213.285156 403.667969 C 214.964844 400.726562 216.855469 397.996094 218.535156 395.058594 C 221.894531 389.597656 225.046875 384.347656 228.195312 378.675781 C 231.136719 377.835938 234.074219 376.785156 236.804688 375.527344 C 239.535156 374.265625 242.476562 373.007812 244.996094 371.328125 L 236.175781 373.847656 C 233.234375 374.6875 230.296875 375.738281 227.355469 376.578125 L 218.535156 379.097656 C 216.433594 379.726562 214.125 380.148438 212.023438 380.777344 C 212.445312 380.148438 212.65625 379.308594 213.074219 378.675781 C 214.125 376.785156 214.964844 375.105469 216.226562 373.425781 C 217.273438 371.746094 218.535156 370.066406 219.585938 369.226562 C 220.84375 368.386719 222.523438 367.335938 224.414062 366.707031 C 226.304688 365.867188 228.195312 365.238281 230.085938 364.605469 C 231.34375 364.1875 232.605469 363.765625 233.863281 363.136719 C 235.546875 363.558594 237.433594 364.398438 238.90625 365.445312 C 241.214844 366.917969 242.894531 368.808594 244.574219 370.90625 C 248.144531 374.898438 252.136719 378.46875 255.914062 382.035156 C 259.90625 385.605469 263.894531 388.96875 268.304688 392.328125 C 272.714844 395.476562 277.125 398.417969 282.164062 400.9375 C 282.585938 401.148438 283.003906 401.148438 283.425781 401.148438 C 284.476562 400.9375 285.316406 399.886719 285.105469 398.835938 C 283.425781 388.335938 281.746094 378.046875 280.273438 367.546875 L 278.175781 351.796875 C 277.753906 348.855469 277.335938 346.128906 276.914062 343.1875 C 282.375 346.128906 288.046875 348.855469 293.925781 351.585938 C 295.605469 352.21875 297.285156 353.058594 299.175781 353.476562 C 301.066406 353.898438 302.746094 354.316406 304.425781 354.738281 L 314.714844 356.835938 C 321.433594 358.097656 328.15625 359.777344 334.664062 362.085938 C 339.074219 363.765625 343.484375 365.65625 347.476562 368.175781 C 343.273438 373.847656 339.285156 379.726562 335.296875 385.605469 C 331.304688 391.488281 327.316406 397.578125 323.324219 403.667969 C 322.484375 405.136719 321.226562 406.816406 320.804688 408.707031 C 320.175781 410.597656 319.753906 412.277344 319.546875 414.167969 C 318.914062 417.738281 318.285156 421.308594 318.074219 424.878906 L 317.445312 435.585938 C 317.445312 439.15625 317.234375 442.726562 317.445312 446.296875 C 317.863281 442.726562 318.074219 439.15625 318.496094 435.585938 L 319.753906 424.878906 C 320.175781 421.308594 320.804688 417.738281 321.644531 414.378906 L 322.90625 409.335938 C 323.324219 407.65625 324.164062 406.398438 325.214844 404.71875 C 328.996094 398.628906 332.984375 392.535156 336.765625 386.445312 C 340.546875 380.355469 344.113281 374.265625 347.476562 368.175781 C 349.15625 369.226562 350.835938 370.277344 352.304688 371.535156 C 357.34375 375.738281 361.125 381.40625 363.015625 387.917969 L 363.644531 390.226562 L 364.066406 392.746094 L 364.695312 397.996094 L 365.746094 408.285156 C 366.375 415.21875 367.003906 422.148438 367.425781 429.078125 L 368.476562 449.867188 Z M 203.835938 402.40625 C 205.304688 402.40625 206.355469 403.457031 206.355469 404.925781 C 206.355469 406.398438 205.304688 407.445312 203.835938 407.445312 C 202.363281 407.445312 201.316406 406.398438 201.316406 404.925781 C 201.316406 403.457031 202.363281 402.40625 203.835938 402.40625 Z M 222.945312 370.488281 C 224.414062 370.488281 225.464844 371.535156 225.464844 373.007812 C 225.464844 374.476562 224.414062 375.527344 222.945312 375.527344 C 221.476562 375.527344 220.425781 374.476562 220.425781 373.007812 C 220.425781 371.535156 221.683594 370.488281 222.945312 370.488281 Z M 204.253906 441.46875 C 205.726562 441.46875 206.773438 442.515625 206.773438 443.988281 C 206.773438 445.457031 205.726562 446.507812 204.253906 446.507812 C 202.785156 446.507812 201.734375 445.457031 201.734375 443.988281 C 201.734375 442.515625 202.785156 441.46875 204.253906 441.46875 Z M 204.253906 441.46875 "/>
<path style=" stroke:none;fill-rule:nonzero;fill:rgb(79.607843%,55.294118%,37.647059%);fill-opacity:1;" d="M 118.785156 176.867188 C 118.785156 176.867188 113.535156 171.828125 107.445312 169.515625 C 101.355469 167.207031 94.636719 170.988281 92.535156 177.285156 C 90.433594 183.378906 95.265625 208.996094 103.035156 218.238281 C 110.804688 227.476562 116.054688 228.316406 121.304688 223.488281 C 126.554688 218.65625 136.003906 200.808594 118.785156 176.867188 Z M 118.785156 176.867188 "/>
<path style=" stroke:none;fill-rule:nonzero;fill:rgb(73.72549%,46.666667%,27.45098%);fill-opacity:1;" d="M 121.515625 180.648438 C 122.355469 181.90625 123.195312 183.378906 124.035156 184.636719 C 124.875 185.898438 125.503906 187.578125 126.34375 188.835938 C 126.976562 190.308594 127.605469 191.777344 128.234375 193.457031 C 128.65625 195.136719 129.285156 196.605469 129.496094 198.496094 C 129.703125 199.335938 129.914062 200.175781 129.914062 201.015625 L 130.125 203.535156 C 130.125 207.105469 129.703125 210.675781 128.65625 213.828125 C 127.605469 217.1875 126.136719 220.128906 124.035156 222.648438 C 123.613281 223.277344 122.984375 223.90625 122.355469 224.328125 C 121.726562 224.746094 121.09375 225.378906 120.464844 225.796875 C 119.203125 226.636719 117.734375 227.265625 116.054688 227.476562 C 114.585938 227.6875 112.90625 227.476562 111.433594 226.847656 C 109.964844 226.21875 108.703125 225.378906 107.65625 224.328125 C 106.394531 223.277344 105.34375 222.226562 104.296875 220.96875 C 103.246094 219.707031 102.40625 218.65625 101.355469 217.1875 C 97.785156 211.726562 95.894531 205.21875 94.214844 198.917969 C 93.375 195.765625 92.535156 192.617188 91.90625 189.257812 C 91.273438 185.898438 90.644531 182.535156 90.855469 178.96875 C 90.855469 178.128906 91.066406 177.078125 91.273438 176.238281 C 91.484375 175.816406 91.484375 175.398438 91.695312 174.976562 L 92.324219 173.71875 C 93.164062 172.246094 94.214844 170.988281 95.476562 169.9375 C 97.996094 167.835938 100.933594 166.996094 103.875 167.417969 C 105.34375 167.628906 106.816406 168.046875 108.074219 168.675781 C 109.335938 169.308594 110.59375 170.148438 111.855469 170.988281 C 114.375 172.667969 116.683594 174.347656 118.785156 176.445312 Z M 111.644531 172.035156 C 110.386719 171.40625 109.125 170.777344 107.863281 170.355469 C 106.605469 169.9375 105.34375 169.726562 104.085938 169.726562 C 101.566406 169.9375 99.253906 170.988281 97.15625 172.667969 C 96.105469 173.507812 95.265625 174.558594 94.636719 175.816406 C 94.214844 176.445312 94.003906 177.078125 93.796875 177.707031 C 93.585938 178.335938 93.375 178.96875 93.375 179.597656 C 92.953125 182.535156 93.164062 185.898438 93.585938 189.257812 C 94.003906 192.40625 94.425781 195.765625 95.265625 198.917969 C 96.945312 205.21875 99.253906 211.515625 102.824219 216.136719 C 104.714844 218.445312 106.816406 220.546875 109.125 222.226562 C 111.433594 223.90625 113.746094 224.957031 116.054688 224.535156 C 117.105469 224.328125 118.363281 223.90625 119.414062 223.066406 C 120.464844 222.226562 121.515625 221.386719 122.355469 220.335938 C 124.035156 218.238281 125.503906 215.507812 126.34375 212.566406 C 127.394531 209.628906 127.816406 206.6875 127.816406 203.535156 C 127.816406 200.386719 127.394531 197.238281 126.976562 194.085938 C 125.714844 187.785156 122.773438 181.90625 119.203125 176.867188 C 116.476562 174.976562 114.164062 173.296875 111.644531 172.035156 Z M 111.644531 172.035156 "/>
<path style=" stroke:none;fill-rule:nonzero;fill:rgb(67.45098%,39.215686%,18.431373%);fill-opacity:1;" d="M 100.515625 176.027344 C 107.445312 177.285156 111.855469 188.835938 113.113281 196.605469 C 113.324219 196.816406 113.324219 197.027344 113.535156 197.238281 C 114.375 198.496094 112.695312 199.757812 111.855469 198.496094 C 110.804688 196.816406 109.753906 195.136719 108.074219 194.507812 C 105.136719 193.457031 103.664062 196.816406 104.296875 199.96875 C 105.136719 203.957031 107.65625 206.265625 109.753906 209.207031 C 109.964844 209.417969 109.753906 209.835938 109.546875 209.628906 C 105.976562 207.527344 100.515625 199.546875 103.035156 194.507812 C 104.925781 190.9375 107.863281 191.566406 110.175781 193.667969 C 108.496094 189.257812 107.234375 184.636719 103.875 181.277344 C 102.824219 180.226562 100.726562 178.335938 99.253906 178.546875 C 96.523438 178.96875 96.523438 182.957031 96.523438 185.6875 C 96.316406 189.257812 96.734375 192.828125 97.363281 196.1875 C 97.363281 196.605469 96.945312 196.605469 96.734375 196.398438 C 95.265625 191.355469 92.535156 174.558594 100.515625 176.027344 Z M 100.515625 176.027344 "/>
<path style=" stroke:none;fill-rule:nonzero;fill:rgb(79.607843%,55.294118%,37.647059%);fill-opacity:1;" d="M 281.324219 176.867188 C 281.324219 176.867188 286.574219 171.828125 292.664062 169.515625 C 298.753906 167.207031 305.476562 170.988281 307.574219 177.285156 C 309.675781 183.378906 304.84375 208.996094 297.074219 218.238281 C 289.304688 227.476562 284.054688 228.316406 278.804688 223.488281 C 273.554688 218.65625 264.105469 200.808594 281.324219 176.867188 Z M 281.324219 176.867188 "/>
<path style=" stroke:none;fill-rule:nonzero;fill:rgb(73.72549%,46.666667%,27.45098%);fill-opacity:1;" d="M 281.113281 176.65625 C 283.425781 174.558594 285.734375 172.878906 288.046875 171.195312 C 289.304688 170.355469 290.566406 169.726562 291.824219 168.886719 C 293.085938 168.257812 294.554688 167.628906 296.023438 167.628906 C 298.964844 167.207031 301.90625 168.257812 304.425781 170.148438 C 305.683594 171.195312 306.734375 172.457031 307.574219 173.925781 L 308.203125 175.1875 C 308.414062 175.605469 308.625 176.027344 308.625 176.445312 C 308.835938 177.285156 309.046875 178.335938 309.046875 179.175781 C 309.253906 182.746094 308.625 186.105469 307.996094 189.46875 C 307.363281 192.828125 306.523438 195.976562 305.683594 199.128906 C 303.796875 205.425781 301.90625 211.726562 298.546875 217.398438 C 297.703125 218.867188 296.65625 219.917969 295.605469 221.175781 C 294.554688 222.4375 293.503906 223.488281 292.246094 224.535156 C 290.984375 225.585938 289.726562 226.425781 288.464844 227.058594 C 286.996094 227.6875 285.523438 227.898438 283.84375 227.6875 C 282.375 227.476562 280.90625 226.847656 279.433594 226.007812 C 278.804688 225.585938 278.175781 225.167969 277.546875 224.535156 C 276.914062 223.90625 276.285156 223.488281 275.863281 222.855469 C 273.765625 220.335938 272.296875 217.398438 271.246094 214.035156 C 270.195312 210.675781 269.773438 207.105469 269.773438 203.746094 L 269.984375 201.226562 C 269.984375 200.386719 270.195312 199.546875 270.40625 198.707031 C 270.613281 197.027344 271.246094 195.347656 271.664062 193.667969 C 272.296875 192.195312 272.925781 190.515625 273.554688 189.046875 C 274.394531 187.578125 275.023438 186.105469 275.863281 184.847656 C 276.703125 183.585938 277.546875 182.117188 278.386719 180.855469 Z M 281.324219 176.867188 C 277.753906 181.90625 275.023438 187.785156 273.554688 194.085938 C 272.925781 197.238281 272.503906 200.386719 272.714844 203.535156 C 272.925781 206.6875 273.34375 209.628906 274.183594 212.566406 C 275.023438 215.507812 276.496094 218.027344 278.175781 220.335938 C 279.015625 221.386719 279.855469 222.4375 281.113281 223.066406 C 282.164062 223.90625 283.214844 224.328125 284.476562 224.535156 C 286.785156 224.957031 289.09375 223.90625 291.40625 222.226562 C 293.503906 220.546875 295.816406 218.445312 297.703125 216.136719 C 301.273438 211.308594 303.585938 205.21875 305.265625 198.917969 C 306.105469 195.765625 306.523438 192.40625 306.945312 189.257812 C 307.363281 186.105469 307.574219 182.746094 307.15625 179.597656 C 307.15625 178.757812 306.945312 178.335938 306.734375 177.707031 C 306.523438 177.078125 306.105469 176.445312 305.894531 175.816406 C 305.265625 174.558594 304.425781 173.71875 303.375 172.667969 C 301.484375 170.988281 298.964844 169.9375 296.445312 169.726562 C 295.183594 169.726562 293.925781 169.9375 292.664062 170.355469 C 291.40625 170.777344 290.144531 171.40625 288.886719 172.035156 C 285.945312 173.296875 283.636719 174.976562 281.324219 176.867188 Z M 281.324219 176.867188 "/>
<path style=" stroke:none;fill-rule:nonzero;fill:rgb(67.45098%,39.215686%,18.431373%);fill-opacity:1;" d="M 299.59375 176.027344 C 292.664062 177.285156 288.253906 188.835938 286.996094 196.605469 C 286.785156 196.816406 286.785156 197.027344 286.574219 197.238281 C 285.734375 198.496094 287.414062 199.757812 288.253906 198.496094 C 289.304688 196.816406 290.355469 195.136719 292.035156 194.507812 C 294.976562 193.457031 296.445312 196.816406 295.816406 199.96875 C 294.976562 203.957031 292.453125 206.265625 290.355469 209.207031 C 290.144531 209.417969 290.355469 209.835938 290.566406 209.628906 C 294.136719 207.527344 299.59375 199.546875 297.074219 194.507812 C 295.183594 190.9375 292.246094 191.566406 289.933594 193.667969 C 291.613281 189.257812 292.875 184.636719 296.234375 181.277344 C 297.285156 180.226562 299.386719 178.335938 300.855469 178.546875 C 303.585938 178.96875 303.585938 182.957031 303.585938 185.6875 C 303.796875 189.257812 303.375 192.828125 302.746094 196.1875 C 302.746094 196.605469 303.164062 196.605469 303.375 196.398438 C 304.84375 191.355469 307.574219 174.558594 299.59375 176.027344 Z M 299.59375 176.027344 "/>
<path style=" stroke:none;fill-rule:nonzero;fill:rgb(79.607843%,55.294118%,37.647059%);fill-opacity:1;" d="M 290.773438 160.066406 L 290.773438 159.4375 C 288.046875 96.648438 247.304688 61.996094 200.054688 61.996094 C 152.804688 61.996094 112.066406 96.648438 109.546875 159.4375 L 109.546875 160.066406 C 109.753906 179.808594 108.285156 213.617188 113.746094 226.425781 C 116.476562 232.9375 142.726562 276.40625 162.886719 298.246094 C 174.433594 311.058594 180.523438 311.898438 200.054688 311.898438 C 219.585938 311.898438 225.675781 311.058594 237.226562 298.246094 C 257.386719 276.40625 283.636719 232.9375 286.363281 226.425781 C 291.824219 213.617188 290.355469 179.808594 290.773438 160.066406 Z M 290.773438 160.066406 "/>
<path style=" stroke:none;fill-rule:nonzero;fill:rgb(61.568627%,32.156863%,10.588235%);fill-opacity:1;" d="M 237.226562 298.246094 C 257.386719 276.40625 283.636719 232.9375 286.363281 226.425781 C 291.824219 213.617188 290.355469 179.808594 290.773438 160.066406 L 290.773438 159.4375 C 288.046875 96.648438 247.304688 61.996094 200.054688 61.996094 C 152.804688 61.996094 112.066406 96.648438 109.546875 159.4375 L 109.546875 160.066406 C 109.753906 179.808594 108.285156 213.617188 113.746094 226.425781 C 116.476562 232.9375 142.726562 276.40625 162.886719 298.246094 C 174.433594 311.058594 180.523438 311.898438 200.054688 311.898438 C 219.585938 311.898438 225.675781 311.058594 237.226562 298.246094 Z M 173.59375 301.1875 C 171.074219 299.296875 168.765625 296.988281 166.453125 294.46875 C 161.625 289.425781 157.214844 281.867188 152.804688 276.40625 C 143.984375 265.277344 135.796875 253.726562 127.816406 242.175781 C 125.925781 239.238281 123.824219 236.296875 121.933594 233.355469 C 120.886719 231.886719 120.046875 230.417969 119.203125 228.945312 L 117.945312 226.847656 C 117.523438 226.21875 117.105469 225.585938 116.894531 224.746094 C 115.636719 222.015625 115.003906 218.65625 114.375 215.296875 C 113.746094 211.9375 113.324219 208.367188 112.90625 205.007812 C 111.644531 190.9375 111.433594 176.65625 111.226562 162.378906 C 111.226562 148.308594 113.535156 134.238281 118.785156 121.007812 C 118.996094 120.167969 119.414062 119.328125 119.625 118.488281 L 120.886719 116.175781 L 123.195312 111.558594 C 123.824219 109.878906 124.875 108.617188 125.925781 106.9375 L 128.65625 102.527344 L 131.804688 98.328125 C 132.855469 97.066406 133.90625 95.597656 135.164062 94.335938 C 137.683594 91.816406 139.785156 89.296875 142.515625 87.195312 C 143.773438 86.148438 145.246094 84.886719 146.503906 83.835938 L 150.703125 80.898438 L 152.804688 79.425781 C 153.433594 79.007812 154.273438 78.585938 155.113281 78.167969 L 159.523438 75.648438 C 160.996094 74.808594 162.675781 74.386719 164.144531 73.546875 C 165.824219 72.917969 167.296875 72.078125 168.976562 71.65625 C 172.335938 70.605469 175.484375 69.558594 178.84375 68.925781 C 192.074219 65.988281 205.933594 65.777344 219.164062 68.71875 L 224.203125 69.765625 L 229.035156 71.238281 C 232.394531 72.078125 235.335938 73.546875 238.484375 74.808594 C 240.164062 75.4375 241.425781 76.488281 242.894531 77.117188 C 244.363281 77.957031 246.046875 78.585938 247.304688 79.636719 C 250.035156 81.527344 253.183594 83.207031 255.703125 85.515625 C 266.414062 94.128906 275.234375 105.46875 280.90625 118.277344 C 286.574219 131.085938 289.515625 145.367188 290.144531 159.4375 C 289.933594 166.578125 289.933594 173.71875 289.726562 180.855469 C 289.515625 187.996094 289.304688 195.136719 288.464844 202.277344 C 287.835938 209.207031 286.785156 216.558594 284.683594 222.855469 L 283.636719 225.167969 C 283.214844 225.796875 282.796875 226.636719 282.375 227.265625 C 281.535156 228.738281 280.484375 230.207031 279.644531 231.675781 C 277.753906 234.617188 275.65625 237.558594 273.554688 240.496094 C 269.355469 246.378906 265.15625 252.046875 260.953125 257.71875 C 258.855469 260.445312 256.753906 263.386719 254.445312 266.117188 C 252.34375 268.847656 250.035156 271.785156 247.933594 274.515625 C 243.523438 279.976562 239.113281 287.535156 234.285156 292.578125 C 229.664062 297.828125 225.046875 302.445312 219.796875 304.128906 C 214.546875 306.015625 207.613281 306.015625 200.476562 306.015625 C 193.546875 306.015625 186.195312 306.226562 180.734375 304.757812 C 178.425781 304.335938 176.113281 303.078125 173.59375 301.1875 Z M 173.59375 301.1875 "/>
<path style=" stroke:none;fill-rule:nonzero;fill:rgb(62.745098%,41.960784%,34.901961%);fill-opacity:1;" d="M 176.535156 260.65625 C 180.734375 268.425781 190.394531 272.417969 198.796875 272.628906 C 207.824219 273.046875 220.425781 269.476562 226.515625 262.335938 C 227.144531 261.496094 226.304688 260.238281 225.253906 260.65625 C 221.265625 261.917969 217.90625 264.648438 214.125 266.328125 C 209.925781 268.21875 205.304688 269.265625 200.683594 269.6875 C 191.445312 270.105469 184.09375 266.328125 177.796875 260.027344 C 177.164062 259.398438 176.113281 260.238281 176.535156 260.65625 Z M 197.746094 252.046875 C 197.746094 252.046875 196.484375 252.046875 195.226562 251.628906 C 193.753906 251.207031 192.703125 250.578125 189.136719 250.15625 C 185.566406 249.738281 184.09375 249.945312 180.523438 251.835938 C 176.953125 253.726562 175.273438 253.9375 172.335938 253.097656 C 169.183594 252.257812 168.136719 248.476562 168.136719 248.476562 C 167.085938 248.476562 166.664062 251.835938 169.605469 254.355469 C 172.335938 256.878906 181.15625 257.296875 187.035156 257.085938 C 194.386719 256.878906 198.375 256.667969 198.375 256.667969 L 201.316406 256.667969 C 201.316406 256.667969 205.304688 256.667969 212.65625 257.085938 C 218.535156 257.296875 227.355469 256.667969 230.085938 254.355469 C 232.816406 252.046875 232.605469 248.476562 231.554688 248.476562 C 231.554688 248.476562 230.503906 252.257812 227.355469 253.097656 C 224.414062 253.9375 222.734375 253.515625 219.164062 251.835938 C 215.59375 250.15625 214.125 249.738281 210.554688 250.15625 C 206.984375 250.578125 205.726562 251.207031 204.464844 251.628906 C 203.203125 252.046875 201.945312 252.046875 201.945312 252.046875 Z M 197.746094 252.046875 "/>
<path style=" stroke:none;fill-rule:nonzero;fill:rgb(82.745098%,59.607843%,43.137255%);fill-opacity:1;" d="M 194.386719 268.007812 C 201.945312 269.898438 213.914062 268.425781 219.164062 262.335938 C 219.585938 261.917969 219.164062 260.65625 218.324219 260.867188 C 214.546875 261.707031 211.394531 263.597656 207.824219 264.648438 C 203.414062 265.90625 199.003906 266.328125 194.386719 266.535156 C 193.753906 266.746094 193.753906 267.796875 194.386719 268.007812 Z M 194.386719 268.007812 "/>
<path style=" stroke:none;fill-rule:nonzero;fill:rgb(100%,100%,100%);fill-opacity:1;" d="M 179.894531 190.515625 C 179.894531 190.515625 176.953125 185.265625 172.546875 181.695312 C 168.136719 178.128906 160.785156 176.445312 155.535156 176.867188 C 150.285156 177.285156 140.625 180.648438 135.375 188.417969 C 135.375 188.417969 140.203125 190.9375 147.136719 192.195312 C 154.066406 193.457031 165.824219 194.507812 172.335938 193.035156 C 178.636719 191.777344 179.894531 190.515625 179.894531 190.515625 Z M 179.894531 190.515625 "/>
<path style=" stroke:none;fill-rule:nonzero;fill:rgb(40.784314%,9.019608%,6.666667%);fill-opacity:1;" d="M 158.265625 173.507812 C 164.144531 173.507812 169.183594 178.335938 169.183594 184.425781 C 169.183594 190.515625 164.355469 195.347656 158.265625 195.347656 C 152.175781 195.347656 147.34375 190.515625 147.34375 184.425781 C 147.34375 178.335938 152.175781 173.507812 158.265625 173.507812 Z M 158.265625 173.507812 "/>
<path style=" stroke:none;fill-rule:nonzero;fill:rgb(0%,0%,0%);fill-opacity:1;" d="M 158.265625 178.546875 C 161.414062 178.546875 164.144531 181.066406 164.144531 184.425781 C 164.144531 187.785156 161.625 190.308594 158.265625 190.308594 C 154.90625 190.308594 152.386719 187.785156 152.386719 184.425781 C 152.386719 181.066406 154.90625 178.546875 158.265625 178.546875 Z M 158.265625 178.546875 "/>
<path style=" stroke:none;fill-rule:nonzero;fill:rgb(100%,100%,100%);fill-opacity:1;" d="M 156.796875 179.597656 L 155.535156 178.335938 C 155.113281 177.917969 154.695312 177.707031 154.066406 177.707031 C 153.644531 177.707031 153.015625 177.917969 152.59375 178.335938 C 152.175781 178.757812 151.964844 179.175781 151.964844 179.808594 C 151.964844 180.4375 152.175781 180.855469 152.59375 181.277344 L 153.855469 182.535156 C 154.273438 182.957031 154.695312 183.167969 155.324219 183.167969 C 155.746094 183.167969 156.375 182.957031 156.796875 182.535156 C 157.425781 181.488281 157.636719 180.226562 156.796875 179.597656 Z M 162.046875 189.46875 C 163.933594 189.46875 163.933594 186.527344 162.046875 186.527344 C 160.15625 186.527344 160.363281 189.46875 162.046875 189.46875 Z M 162.046875 189.46875 "/>
<path style=" stroke:none;fill-rule:nonzero;fill:rgb(79.607843%,55.294118%,37.647059%);fill-opacity:1;" d="M 147.136719 192.40625 C 154.066406 193.667969 165.824219 194.71875 172.335938 193.246094 C 178.84375 191.777344 179.894531 190.515625 179.894531 190.515625 C 179.894531 190.515625 176.953125 185.265625 172.546875 181.695312 C 168.136719 178.128906 160.785156 176.445312 155.535156 176.867188 C 150.285156 177.285156 141.253906 180.4375 136.003906 187.785156 L 136.003906 186.316406 C 136.003906 172.878906 145.875 162.167969 158.265625 162.167969 C 170.65625 162.167969 180.523438 173.085938 180.523438 186.316406 C 180.523438 199.546875 170.65625 210.46875 158.265625 210.46875 C 146.714844 210.46875 137.054688 200.808594 136.003906 188.417969 C 137.265625 189.46875 141.464844 191.355469 147.136719 192.40625 Z M 147.136719 192.40625 "/>
<path style=" stroke:none;fill-rule:nonzero;fill:rgb(73.72549%,46.666667%,27.45098%);fill-opacity:1;" d="M 180.945312 193.667969 C 173.386719 199.128906 163.304688 202.277344 153.855469 201.4375 C 153.433594 201.4375 153.433594 201.015625 153.855469 201.015625 C 163.726562 199.96875 171.703125 198.078125 180.523438 193.246094 C 181.15625 192.828125 181.363281 193.457031 180.945312 193.667969 Z M 180.945312 193.667969 "/>
<path style=" stroke:none;fill-rule:nonzero;fill:rgb(0%,0%,0%);fill-opacity:1;" d="M 135.375 188.835938 C 146.925781 197.445312 167.714844 196.605469 180.523438 191.988281 C 181.15625 191.777344 181.574219 190.9375 181.15625 190.308594 C 171.074219 170.988281 147.136719 170.777344 134.953125 188.207031 C 134.746094 188.417969 135.164062 188.835938 135.375 188.835938 Z M 158.265625 192.828125 C 150.496094 192.40625 143.566406 190.097656 136.214844 188.207031 C 148.183594 173.925781 168.976562 173.925781 178.636719 190.097656 C 171.914062 192.40625 165.195312 193.246094 158.265625 192.828125 Z M 158.265625 192.828125 "/>
<path style=" stroke:none;fill-rule:nonzero;fill:rgb(100%,100%,100%);fill-opacity:1;" d="M 220.214844 190.515625 C 220.214844 190.515625 223.15625 185.265625 227.566406 181.695312 C 231.976562 178.128906 239.324219 176.445312 244.574219 176.867188 C 249.824219 177.285156 259.484375 180.648438 264.734375 188.417969 C 264.734375 188.417969 259.90625 190.9375 252.976562 192.195312 C 246.046875 193.457031 234.285156 194.507812 227.773438 193.035156 C 221.476562 191.777344 220.214844 190.515625 220.214844 190.515625 Z M 220.214844 190.515625 "/>
<path style=" stroke:none;fill-rule:nonzero;fill:rgb(40.784314%,9.019608%,6.666667%);fill-opacity:1;" d="M 241.84375 173.507812 C 247.726562 173.507812 252.765625 178.335938 252.765625 184.425781 C 252.765625 190.515625 247.933594 195.347656 241.84375 195.347656 C 235.753906 195.347656 230.925781 190.515625 230.925781 184.425781 C 230.925781 178.335938 235.964844 173.507812 241.84375 173.507812 Z M 241.84375 173.507812 "/>
<path style=" stroke:none;fill-rule:nonzero;fill:rgb(0%,0%,0%);fill-opacity:1;" d="M 241.84375 178.546875 C 244.996094 178.546875 247.726562 181.066406 247.726562 184.425781 C 247.726562 187.785156 245.203125 190.308594 241.84375 190.308594 C 238.484375 190.308594 235.964844 187.785156 235.964844 184.425781 C 235.964844 181.066406 238.695312 178.546875 241.84375 178.546875 Z M 241.84375 178.546875 "/>
<path style=" stroke:none;fill-rule:nonzero;fill:rgb(100%,100%,100%);fill-opacity:1;" d="M 240.585938 179.597656 L 239.324219 178.335938 C 238.90625 177.917969 238.484375 177.707031 237.855469 177.707031 C 237.433594 177.707031 236.804688 177.917969 236.386719 178.335938 C 235.964844 178.757812 235.753906 179.175781 235.753906 179.808594 C 235.753906 180.4375 235.964844 180.855469 236.386719 181.277344 L 237.644531 182.535156 C 238.066406 182.957031 238.484375 183.167969 239.113281 183.167969 C 239.535156 183.167969 240.164062 182.957031 240.585938 182.535156 C 241.214844 181.488281 241.425781 180.226562 240.585938 179.597656 Z M 245.835938 189.46875 C 247.726562 189.46875 247.726562 186.527344 245.835938 186.527344 C 243.945312 186.527344 243.945312 189.46875 245.835938 189.46875 Z M 245.835938 189.46875 "/>
<path style=" stroke:none;fill-rule:nonzero;fill:rgb(79.607843%,55.294118%,37.647059%);fill-opacity:1;" d="M 252.976562 192.40625 C 246.046875 193.667969 234.285156 194.71875 227.773438 193.246094 C 221.265625 191.777344 220.214844 190.515625 220.214844 190.515625 C 220.214844 190.515625 223.15625 185.265625 227.566406 181.695312 C 231.976562 178.128906 239.324219 176.445312 244.574219 176.867188 C 249.824219 177.285156 258.855469 180.4375 264.105469 187.785156 L 264.105469 186.316406 C 264.105469 172.878906 254.234375 162.167969 241.84375 162.167969 C 229.453125 162.167969 219.585938 173.085938 219.585938 186.316406 C 219.585938 199.546875 229.453125 210.46875 241.84375 210.46875 C 253.394531 210.46875 263.054688 200.808594 264.105469 188.417969 C 262.84375 189.46875 258.644531 191.355469 252.976562 192.40625 Z M 252.976562 192.40625 "/>
<path style=" stroke:none;fill-rule:nonzero;fill:rgb(73.72549%,46.666667%,27.45098%);fill-opacity:1;" d="M 219.164062 193.667969 C 226.726562 199.128906 236.804688 202.277344 246.253906 201.4375 C 246.675781 201.4375 246.675781 201.015625 246.253906 201.015625 C 236.386719 199.96875 228.40625 198.078125 219.585938 193.246094 C 218.953125 192.828125 218.746094 193.457031 219.164062 193.667969 Z M 219.164062 193.667969 "/>
<path style=" stroke:none;fill-rule:nonzero;fill:rgb(0%,0%,0%);fill-opacity:1;" d="M 265.15625 188.207031 C 252.976562 170.777344 228.824219 170.988281 218.953125 190.308594 C 218.535156 190.9375 218.953125 191.777344 219.585938 191.988281 C 232.394531 196.605469 253.183594 197.445312 264.734375 188.835938 C 264.945312 188.835938 265.363281 188.417969 265.15625 188.207031 Z M 221.476562 190.097656 C 231.136719 173.925781 251.925781 173.925781 263.894531 188.207031 C 256.546875 190.097656 249.613281 192.40625 241.84375 192.828125 C 234.914062 193.246094 228.195312 192.40625 221.476562 190.097656 Z M 221.476562 190.097656 "/>
<path style=" stroke:none;fill-rule:nonzero;fill:rgb(16.470588%,13.72549%,16.862745%);fill-opacity:1;" d="M 141.046875 158.386719 C 141.464844 157.96875 141.886719 157.757812 142.304688 157.546875 C 142.726562 157.335938 143.144531 157.128906 143.773438 156.917969 C 144.613281 156.496094 145.453125 156.078125 146.503906 155.867188 C 147.554688 155.445312 149.445312 154.816406 150.496094 155.445312 C 154.066406 154.1875 158.894531 155.027344 162.253906 156.707031 C 166.664062 157.128906 171.285156 158.597656 174.644531 160.90625 C 174.855469 161.117188 175.066406 161.328125 175.066406 161.535156 L 176.953125 162.167969 C 179.265625 163.007812 181.785156 163.847656 184.09375 164.898438 C 184.304688 164.898438 184.515625 165.105469 184.726562 165.105469 C 185.566406 165.527344 185.773438 166.578125 185.144531 166.996094 C 184.933594 167.207031 184.933594 167.417969 184.515625 167.628906 C 182.835938 168.886719 180.316406 168.046875 178.425781 167.417969 C 176.746094 166.785156 175.066406 165.945312 173.804688 164.6875 C 172.125 164.058594 170.445312 163.21875 168.976562 162.167969 C 168.765625 162.167969 168.554688 161.957031 168.34375 161.957031 C 165.40625 161.535156 162.464844 160.277344 159.945312 159.015625 L 159.734375 159.015625 C 158.265625 158.597656 156.796875 158.386719 155.113281 158.386719 C 153.015625 158.175781 150.914062 158.808594 148.816406 158.175781 L 148.605469 158.175781 C 148.183594 158.386719 147.765625 158.386719 147.34375 158.597656 C 145.453125 159.226562 143.984375 159.4375 141.886719 159.4375 C 141.675781 159.4375 141.464844 159.226562 141.464844 159.015625 L 141.253906 159.015625 C 141.253906 159.015625 140.835938 158.597656 141.046875 158.386719 Z M 141.046875 158.386719 "/>
<path style=" stroke:none;fill-rule:nonzero;fill:rgb(22.745098%,20.784314%,22.745098%);fill-opacity:1;" d="M 151.546875 153.976562 C 158.683594 153.347656 165.824219 157.546875 172.335938 160.066406 C 176.324219 161.535156 184.515625 162.167969 185.984375 166.996094 C 186.195312 167.628906 185.355469 168.046875 184.933594 167.417969 C 182.835938 164.476562 179.476562 164.265625 176.324219 163.21875 C 173.59375 162.378906 170.863281 161.328125 168.34375 160.277344 C 162.675781 157.96875 157.214844 156.707031 151.546875 155.238281 C 150.914062 154.816406 151.125 153.976562 151.546875 153.976562 Z M 151.546875 153.976562 "/>
<path style=" stroke:none;fill-rule:nonzero;fill:rgb(10.588235%,7.843137%,10.980392%);fill-opacity:1;" d="M 188.296875 166.785156 C 188.925781 163.636719 184.09375 162.378906 181.785156 161.535156 C 176.113281 159.226562 170.445312 156.707031 164.566406 155.027344 C 160.996094 153.976562 157.425781 153.347656 153.855469 153.347656 C 151.125 153.347656 148.394531 153.558594 145.875 154.398438 C 141.253906 155.867188 136.84375 158.386719 132.855469 161.535156 C 130.753906 162.796875 128.65625 164.265625 126.976562 165.945312 C 126.554688 166.367188 126.976562 166.785156 127.394531 166.578125 C 127.605469 166.578125 127.605469 166.578125 127.605469 166.367188 C 127.816406 166.578125 127.816406 166.578125 128.023438 166.578125 C 131.386719 165.105469 134.535156 162.796875 138.105469 161.328125 C 141.464844 159.855469 145.246094 159.015625 148.816406 158.808594 L 150.496094 158.808594 C 154.90625 158.808594 159.105469 159.648438 163.09375 161.535156 C 168.554688 164.058594 173.804688 167.417969 179.265625 169.515625 C 180.316406 169.9375 181.363281 170.148438 182.625 169.9375 C 185.355469 170.355469 187.664062 169.308594 188.296875 166.785156 Z M 154.066406 155.445312 C 157.84375 155.445312 161.625 156.285156 165.195312 157.546875 C 169.816406 159.226562 174.433594 161.328125 179.054688 163.007812 C 179.894531 163.425781 184.515625 164.476562 184.933594 165.738281 C 185.355469 167.207031 184.304688 167.628906 183.253906 167.835938 C 182.625 167.835938 181.996094 167.628906 181.574219 167.628906 C 180.105469 167.207031 178.84375 166.367188 177.585938 165.738281 C 170.445312 162.167969 163.09375 157.546875 154.90625 157.128906 L 152.59375 157.128906 C 150.074219 157.128906 147.34375 157.335938 144.613281 157.757812 C 145.875 157.335938 146.925781 156.917969 148.183594 156.496094 C 149.863281 155.65625 151.964844 155.445312 154.066406 155.445312 Z M 154.066406 155.445312 "/>
<path style=" stroke:none;fill-rule:nonzero;fill:rgb(16.470588%,13.72549%,16.862745%);fill-opacity:1;" d="M 259.066406 158.386719 C 258.644531 157.96875 258.226562 157.757812 257.804688 157.546875 C 257.386719 157.335938 256.964844 157.128906 256.335938 156.917969 C 255.496094 156.496094 254.65625 156.078125 253.605469 155.867188 C 252.554688 155.445312 250.664062 154.816406 249.613281 155.445312 C 246.046875 154.1875 241.214844 155.027344 237.855469 156.707031 C 233.445312 157.128906 228.824219 158.597656 225.464844 160.90625 C 225.253906 161.117188 225.046875 161.328125 225.046875 161.535156 L 223.15625 162.167969 C 220.84375 163.007812 218.324219 163.847656 216.015625 164.898438 C 215.804688 164.898438 215.59375 165.105469 215.386719 165.105469 C 214.546875 165.527344 214.335938 166.578125 214.964844 166.996094 C 215.175781 167.207031 215.175781 167.417969 215.59375 167.628906 C 217.273438 168.886719 219.796875 168.046875 221.683594 167.417969 C 223.363281 166.785156 225.046875 165.945312 226.304688 164.6875 C 227.984375 164.058594 229.664062 163.21875 231.136719 162.167969 C 231.34375 162.167969 231.554688 161.957031 231.765625 161.957031 C 234.703125 161.535156 237.644531 160.277344 240.164062 159.015625 L 240.375 159.015625 C 241.84375 158.597656 243.316406 158.386719 244.996094 158.386719 C 247.09375 158.175781 249.195312 158.808594 251.296875 158.175781 L 251.503906 158.175781 C 251.925781 158.386719 252.34375 158.386719 252.765625 158.597656 C 254.65625 159.226562 256.125 159.4375 258.226562 159.4375 C 258.433594 159.4375 258.644531 159.226562 258.644531 159.015625 L 258.855469 159.015625 C 258.855469 159.015625 259.273438 158.597656 259.066406 158.386719 Z M 259.066406 158.386719 "/>
<path style=" stroke:none;fill-rule:nonzero;fill:rgb(22.745098%,20.784314%,22.745098%);fill-opacity:1;" d="M 248.566406 153.976562 C 241.425781 153.347656 234.285156 157.546875 227.773438 160.066406 C 223.785156 161.535156 215.59375 162.167969 214.125 166.996094 C 213.914062 167.628906 214.753906 168.046875 215.175781 167.417969 C 217.273438 164.476562 220.636719 164.265625 223.785156 163.21875 C 226.515625 162.378906 229.246094 161.328125 231.765625 160.277344 C 237.433594 157.96875 242.894531 156.707031 248.566406 155.238281 C 249.195312 154.816406 248.984375 153.976562 248.566406 153.976562 Z M 248.566406 153.976562 "/>
<path style=" stroke:none;fill-rule:nonzero;fill:rgb(10.588235%,7.843137%,10.980392%);fill-opacity:1;" d="M 217.273438 170.148438 C 218.324219 170.148438 219.585938 169.9375 220.636719 169.726562 C 226.304688 167.628906 231.34375 164.058594 236.804688 161.746094 C 240.796875 159.855469 244.996094 159.015625 249.40625 159.015625 L 251.085938 159.015625 C 254.863281 159.226562 258.433594 160.277344 261.796875 161.535156 C 265.363281 163.007812 268.304688 165.105469 271.875 166.785156 C 272.085938 166.785156 272.296875 166.785156 272.296875 166.578125 C 272.296875 166.578125 272.503906 166.578125 272.503906 166.785156 C 272.925781 166.996094 273.34375 166.578125 272.925781 166.15625 C 271.246094 164.476562 269.355469 163.007812 267.046875 161.746094 C 263.054688 158.808594 258.644531 156.078125 254.023438 154.605469 C 251.503906 153.765625 248.773438 153.347656 246.046875 153.558594 C 242.476562 153.558594 238.90625 154.1875 235.335938 155.238281 C 229.453125 156.917969 223.785156 159.4375 218.113281 161.746094 C 215.804688 162.585938 210.976562 163.847656 211.605469 166.996094 C 212.445312 169.308594 214.753906 170.355469 217.273438 170.148438 Z M 252.34375 156.285156 C 253.605469 156.707031 254.863281 157.128906 255.914062 157.546875 C 253.183594 157.128906 250.453125 156.707031 247.933594 156.917969 L 245.625 156.917969 C 237.433594 157.335938 230.085938 161.957031 222.945312 165.527344 C 221.683594 166.15625 220.425781 166.996094 218.953125 167.417969 C 218.535156 167.628906 217.90625 167.628906 217.273438 167.628906 C 216.015625 167.628906 214.964844 166.996094 215.59375 165.527344 C 216.015625 164.265625 220.636719 163.21875 221.476562 162.796875 C 226.09375 160.90625 230.714844 158.808594 235.335938 157.335938 C 238.90625 156.078125 242.683594 155.238281 246.464844 155.238281 C 248.144531 155.445312 250.246094 155.65625 252.34375 156.285156 Z M 252.34375 156.285156 "/>
<path style=" stroke:none;fill-rule:nonzero;fill:rgb(16.470588%,13.72549%,16.862745%);fill-opacity:1;" d="M 197.304688 239.820312 C 199.152344 239.988281 199.152344 245.195312 197.808594 246.035156 C 196.464844 246.875 168.910156 245.699219 167.566406 244.859375 C 166.222656 244.019531 167.566406 242.84375 170.089844 242.171875 C 172.609375 241.667969 188.566406 238.980469 197.304688 239.820312 Z M 205.535156 239.820312 C 203.6875 239.988281 203.6875 245.195312 205.03125 246.035156 C 206.375 246.875 233.929688 245.699219 235.273438 244.859375 C 236.617188 244.019531 235.273438 242.84375 232.753906 242.171875 C 230.230469 241.667969 214.273438 238.980469 205.535156 239.820312 Z M 205.535156 239.820312 "/>
<path style=" stroke:none;fill-rule:nonzero;fill:rgb(10.588235%,7.843137%,10.980392%);fill-opacity:1;" d="M 196.632812 241.164062 C 195.792969 241.667969 195.121094 242.507812 194.28125 243.179688 C 193.441406 243.851562 192.433594 244.355469 191.425781 244.859375 C 191.089844 245.027344 191.257812 245.53125 191.59375 245.363281 C 192.769531 245.027344 193.777344 244.523438 194.617188 243.851562 C 195.457031 243.179688 196.464844 242.507812 196.96875 241.667969 C 197.304688 241.5 196.96875 240.996094 196.632812 241.164062 Z M 194.449219 241.164062 C 193.105469 241.667969 191.929688 242.507812 190.585938 243.011719 L 186.550781 244.523438 C 186.382812 244.691406 186.382812 245.027344 186.71875 245.027344 C 189.40625 244.691406 192.769531 243.347656 194.785156 241.667969 C 195.121094 241.5 194.785156 240.996094 194.449219 241.164062 Z M 188.0625 241.835938 C 186.214844 242.675781 184.199219 243.347656 182.351562 244.355469 C 182.183594 244.523438 182.183594 244.859375 182.519531 244.859375 C 184.535156 244.691406 186.71875 243.683594 188.566406 242.507812 C 188.734375 242.003906 188.398438 241.667969 188.0625 241.835938 Z M 180.671875 242.339844 C 179.832031 242.675781 178.992188 243.011719 178.320312 243.347656 C 177.480469 243.683594 176.640625 243.851562 175.96875 244.355469 C 175.632812 244.523438 175.800781 245.027344 176.304688 244.859375 C 177.984375 244.691406 179.832031 243.515625 181.175781 242.675781 C 181.175781 242.507812 181.007812 242.171875 180.671875 242.339844 Z M 173.785156 243.347656 L 172.273438 243.851562 C 172.105469 244.019531 172.273438 244.355469 172.441406 244.1875 L 173.953125 243.683594 C 174.121094 243.683594 174.121094 243.347656 173.785156 243.347656 Z M 207.886719 245.363281 C 207.550781 244.859375 206.878906 244.355469 206.542969 243.683594 L 205.535156 241.667969 C 205.367188 241.332031 205.03125 241.332031 205.03125 241.667969 C 205.03125 243.179688 206.039062 245.195312 207.550781 245.867188 C 207.71875 246.035156 208.054688 245.699219 207.886719 245.363281 Z M 212.59375 244.859375 C 211.753906 244.523438 210.742188 244.523438 209.902344 244.019531 C 209.0625 243.683594 208.390625 243.011719 207.71875 242.339844 C 207.550781 242.003906 207.046875 242.507812 207.214844 242.675781 C 208.390625 244.1875 210.40625 245.699219 212.59375 245.53125 C 212.929688 245.363281 212.929688 245.027344 212.59375 244.859375 Z M 216.960938 244.019531 C 216.121094 243.347656 215.113281 243.179688 214.273438 242.675781 C 213.265625 242.171875 212.425781 241.835938 211.585938 241.332031 C 211.246094 241.164062 210.910156 241.667969 211.246094 242.003906 C 212.257812 242.507812 213.265625 243.179688 214.273438 243.683594 C 215.113281 244.019531 215.953125 244.523438 216.960938 244.691406 C 217.128906 244.523438 217.128906 244.1875 216.960938 244.019531 Z M 221.832031 244.691406 C 220.320312 243.683594 218.640625 243.179688 216.960938 242.171875 C 216.625 242.003906 216.289062 242.507812 216.625 242.675781 C 218.136719 243.683594 219.816406 244.691406 221.496094 245.027344 C 221.832031 245.195312 222 244.859375 221.832031 244.691406 Z M 225.023438 244.859375 C 223.511719 244.019531 221.832031 243.179688 220.488281 241.835938 C 220.320312 241.667969 219.984375 241.835938 220.152344 242.171875 C 221.328125 243.851562 222.839844 245.363281 224.855469 245.363281 C 225.023438 245.363281 225.191406 245.027344 225.023438 244.859375 Z M 227.878906 244.355469 C 226.871094 243.851562 226.03125 243.683594 225.359375 242.84375 C 225.191406 242.675781 224.855469 242.84375 225.023438 243.011719 C 225.527344 244.019531 226.535156 245.027344 227.878906 244.859375 C 228.046875 244.859375 228.214844 244.523438 227.878906 244.355469 Z M 231.910156 244.1875 C 231.238281 243.851562 230.566406 243.683594 230.0625 243.179688 C 229.726562 242.84375 229.222656 243.347656 229.558594 243.683594 C 230.0625 244.1875 230.902344 244.859375 231.742188 245.027344 C 232.246094 244.859375 232.246094 244.355469 231.910156 244.1875 Z M 171.433594 243.011719 C 170.59375 243.179688 169.921875 243.347656 169.078125 243.851562 C 168.910156 244.019531 169.078125 244.355469 169.246094 244.1875 C 170.089844 244.019531 170.761719 243.683594 171.433594 243.179688 C 171.601562 243.179688 171.601562 243.011719 171.433594 243.011719 Z M 171.433594 243.011719 "/>
<path style=" stroke:none;fill-rule:nonzero;fill:rgb(79.607843%,55.294118%,37.647059%);fill-opacity:1;" d="M 211.667969 215.464844 C 212.214844 217.1875 219.5 225.019531 219.628906 229.261719 C 219.753906 233.503906 215.257812 237.746094 209.671875 233.902344 C 209.671875 233.902344 204.507812 237.871094 199.71875 237.347656 C 194.929688 236.820312 192.285156 233.503906 192.285156 233.503906 C 192.285156 233.503906 187.769531 235.226562 183.925781 233.902344 C 180.085938 232.578125 179.160156 227.9375 181.933594 223.695312 C 184.726562 219.453125 189.492188 212.167969 190.542969 208.050781 C 191.632812 203.9375 205.429688 196.25 211.667969 215.464844 Z M 211.667969 215.464844 "/>
<path style=" stroke:none;fill-rule:nonzero;fill:rgb(61.568627%,32.156863%,10.588235%);fill-opacity:1;" d="M 211.585938 214.542969 C 211.246094 214.121094 210.535156 214.667969 210.828125 215.128906 C 212.78125 218.132812 214.921875 221.070312 216.730469 224.179688 C 217.96875 226.28125 219.207031 228.90625 218.347656 231.445312 C 216.9375 235.605469 213.265625 235.375 210.304688 233.777344 C 211.414062 232.347656 212.066406 230.667969 211.921875 228.820312 C 211.878906 228.359375 211.246094 227.960938 210.910156 228.402344 C 207.972656 232.097656 206.101562 235.960938 200.644531 236.171875 C 194.867188 236.402344 191.152344 231.71875 189.617188 226.699219 C 189.492188 226.257812 188.882812 226.363281 188.863281 226.804688 C 188.714844 229.113281 189.429688 231.339844 190.6875 233.230469 C 189.847656 233.378906 189.007812 233.546875 188.167969 233.589844 C 185.480469 233.757812 185.039062 233.546875 183.277344 231.300781 C 181.40625 228.945312 181.40625 228.359375 182.4375 225.734375 C 182.917969 224.515625 183.652344 223.464844 184.347656 222.351562 C 186.613281 218.824219 188.632812 215.234375 190.121094 211.308594 C 193.125 203.472656 194.425781 194.800781 192.976562 186.507812 C 192.914062 186.148438 192.367188 186.253906 192.367188 186.589844 C 192.347656 193.308594 191.929688 199.945312 189.953125 206.414062 C 187.917969 213.113281 184.054688 218.152344 180.839844 224.179688 C 179.160156 227.308594 178.46875 231.445312 181.324219 234.132812 C 184.15625 236.820312 188.527344 235.960938 191.84375 234.699219 C 193.816406 236.84375 196.546875 238.3125 199.425781 238.585938 C 202.679688 238.878906 206.941406 237.304688 209.566406 234.636719 C 212.613281 238.019531 218.449219 236.445312 219.984375 232.140625 C 222.273438 225.585938 215.152344 219.035156 211.585938 214.542969 Z M 211.585938 214.542969 "/>
<path style=" stroke:none;fill-rule:nonzero;fill:rgb(82.745098%,59.607843%,43.137255%);fill-opacity:1;" d="M 204.757812 220.503906 C 202.890625 218.761719 199.929688 218.257812 197.828125 219.875 C 197.074219 220.464844 196.609375 221.199219 196.421875 221.976562 C 196.066406 222.101562 195.707031 222.3125 195.414062 222.605469 C 193.816406 224.160156 194.488281 226.59375 195.855469 228.042969 C 197.011719 229.28125 198.898438 229.871094 200.558594 229.785156 C 202.597656 229.683594 204.445312 228.714844 205.578125 226.992188 C 206.902344 225 206.503906 222.144531 204.757812 220.503906 Z M 204.757812 220.503906 "/>
<path style=" stroke:none;fill-rule:nonzero;fill:rgb(16.470588%,13.72549%,16.862745%);fill-opacity:1;" d="M 118.785156 193.457031 C 118.785156 193.457031 120.675781 148.726562 121.933594 140.117188 C 122.984375 131.296875 127.183594 107.355469 135.375 100.847656 C 143.566406 94.335938 150.285156 88.246094 170.863281 92.445312 C 191.445312 96.648438 194.804688 100.847656 209.714844 97.488281 C 224.625 94.128906 233.445312 90.976562 233.445312 90.976562 C 233.445312 90.976562 245.203125 93.285156 252.976562 95.175781 C 260.535156 97.066406 266.625 104.628906 272.085938 118.066406 C 277.335938 131.507812 283.84375 157.757812 282.375 176.445312 C 280.90625 195.136719 284.265625 192.40625 284.265625 192.40625 L 291.195312 177.078125 C 291.195312 177.078125 297.703125 164.898438 294.554688 155.027344 C 294.554688 155.027344 296.023438 146.207031 295.816406 141.585938 C 295.605469 136.96875 292.035156 130.457031 292.035156 130.457031 C 292.035156 130.457031 293.503906 115.96875 292.035156 110.925781 C 290.566406 105.886719 289.304688 103.996094 289.304688 103.996094 C 289.304688 103.996094 290.566406 95.175781 286.574219 88.667969 C 282.585938 82.15625 275.234375 76.066406 275.234375 76.066406 C 275.234375 76.066406 265.363281 50.867188 256.546875 46.667969 C 247.726562 42.46875 243.945312 35.957031 232.816406 34.066406 C 221.683594 32.175781 208.453125 35.117188 208.453125 35.117188 C 208.453125 35.117188 203.203125 30.917969 191.234375 34.695312 C 191.234375 34.695312 182.835938 31.335938 169.394531 36.585938 C 155.953125 41.835938 151.125 50.027344 151.125 50.027344 C 151.125 50.027344 137.683594 54.648438 133.90625 61.15625 C 133.90625 61.15625 116.683594 69.558594 112.066406 84.046875 C 107.445312 98.535156 110.175781 106.515625 110.175781 106.515625 C 110.175781 106.515625 104.925781 118.695312 108.703125 130.667969 C 108.703125 130.667969 102.195312 137.597656 106.816406 154.398438 C 106.816406 154.398438 103.035156 162.378906 107.863281 174.136719 C 112.695312 186.105469 112.273438 193.035156 118.785156 193.457031 Z M 118.785156 193.457031 "/>
<path style=" stroke:none;fill-rule:nonzero;fill:rgb(10.588235%,7.843137%,10.980392%);fill-opacity:1;" d="M 293.296875 129.195312 C 294.765625 120.378906 293.714844 110.925781 290.566406 103.578125 C 290.566406 103.367188 290.355469 103.15625 290.144531 103.15625 C 290.355469 100.425781 290.355469 97.695312 289.726562 94.757812 C 288.046875 86.148438 282.164062 80.6875 275.65625 75.226562 C 275.445312 75.226562 275.445312 75.015625 275.445312 75.015625 C 272.714844 65.777344 267.886719 56.957031 261.585938 50.027344 C 248.355469 35.117188 224.835938 25.457031 206.566406 37.425781 C 206.144531 37.847656 206.355469 38.6875 206.984375 38.476562 C 227.773438 30.078125 248.773438 38.058594 262.003906 55.695312 C 272.925781 70.1875 275.023438 86.355469 273.765625 103.996094 C 273.554688 105.257812 275.65625 105.46875 276.074219 104.417969 C 278.386719 96.226562 278.386719 87.40625 276.285156 79.007812 C 279.433594 82.578125 283.214844 85.726562 285.316406 89.925781 C 290.984375 101.265625 285.523438 114.078125 278.804688 123.527344 C 277.964844 124.578125 279.855469 125.628906 280.484375 124.578125 C 284.476562 119.117188 287.835938 113.027344 289.304688 106.515625 C 290.566406 113.65625 291.40625 120.378906 290.144531 127.726562 C 288.886719 134.867188 285.523438 140.957031 282.585938 147.675781 C 282.164062 148.515625 283.214844 149.566406 284.054688 148.726562 C 287.835938 144.738281 290.355469 139.488281 292.035156 133.605469 C 292.875 137.808594 293.503906 141.796875 292.875 146.207031 C 292.453125 150.828125 290.355469 154.816406 289.726562 159.226562 C 289.726562 159.855469 290.566406 160.277344 290.984375 159.855469 C 291.824219 159.015625 292.664062 157.96875 293.296875 156.707031 C 293.296875 163.847656 291.824219 170.148438 289.304688 176.867188 C 288.253906 179.597656 285.734375 186.945312 283.003906 190.726562 C 284.476562 168.886719 282.375 144.527344 275.65625 123.945312 C 272.085938 113.027344 265.785156 101.058594 255.703125 95.597656 C 256.964844 95.597656 258.433594 95.386719 259.695312 95.175781 C 260.746094 94.96875 260.746094 93.285156 259.695312 93.078125 C 247.304688 90.765625 235.335938 89.296875 224.414062 82.15625 C 210.136719 72.707031 200.476562 55.277344 204.886719 38.058594 C 205.09375 37.007812 203.625 36.585938 203.203125 37.636719 C 195.015625 58.21875 210.136719 79.636719 229.664062 89.71875 C 225.253906 91.1875 220.636719 92.445312 216.226562 93.496094 C 198.375 93.496094 179.265625 88.035156 174.015625 68.507812 C 168.136719 47.085938 187.453125 30.707031 207.824219 35.117188 C 208.664062 35.328125 209.085938 34.066406 208.246094 33.855469 C 201.945312 31.335938 195.855469 31.335938 190.183594 33.226562 C 176.746094 31.546875 162.675781 35.328125 153.226562 45.195312 L 152.804688 45.195312 C 145.246094 49.605469 137.683594 54.015625 132.226562 60.316406 C 116.265625 67.246094 102.195312 89.085938 107.65625 106.097656 C 105.34375 113.027344 104.714844 121.21875 105.976562 128.988281 C 102.824219 135.285156 101.566406 145.996094 104.296875 153.765625 C 101.355469 163.007812 105.34375 173.296875 108.914062 181.90625 C 111.433594 187.785156 111.015625 192.828125 117.316406 195.347656 C 117.734375 195.558594 118.15625 195.558594 118.363281 195.136719 C 119.203125 194.925781 119.835938 194.507812 120.046875 193.457031 C 120.253906 169.515625 121.726562 145.578125 127.605469 122.476562 C 130.125 112.398438 133.484375 100.847656 143.144531 95.597656 C 154.066406 89.507812 168.34375 93.078125 179.683594 96.015625 L 179.894531 96.015625 C 196.695312 103.367188 218.113281 100.847656 233.65625 91.605469 C 238.90625 93.707031 244.363281 95.175781 249.613281 95.597656 C 266.203125 101.6875 272.503906 122.6875 275.234375 138.855469 C 278.59375 157.335938 280.273438 175.398438 279.015625 194.085938 C 278.804688 195.765625 280.90625 195.976562 281.746094 195.136719 C 287.203125 192.40625 286.996094 187.578125 289.304688 181.90625 C 293.085938 173.296875 296.65625 162.796875 293.925781 153.765625 C 297.703125 146.207031 296.445312 135.496094 293.296875 129.195312 Z M 129.074219 107.566406 C 117.945312 132.976562 117.316406 164.265625 117.105469 191.566406 C 114.164062 188.207031 111.433594 180.015625 110.175781 176.867188 C 107.65625 170.148438 105.976562 163.847656 106.183594 156.707031 C 106.816406 157.96875 107.65625 159.015625 108.496094 159.855469 C 108.914062 160.277344 109.964844 160.066406 109.753906 159.226562 C 109.125 154.816406 107.023438 150.617188 106.605469 146.207031 C 106.183594 141.796875 106.605469 137.808594 107.65625 133.605469 C 109.125 139.277344 111.855469 144.738281 115.636719 148.726562 C 116.476562 149.566406 117.523438 148.515625 117.105469 147.675781 C 114.164062 140.957031 110.804688 135.078125 109.546875 127.726562 C 108.496094 121.636719 108.914062 115.757812 109.753906 109.667969 C 111.226562 112.398438 113.324219 115.128906 116.054688 117.4375 C 116.894531 118.066406 118.363281 117.226562 117.734375 116.175781 C 104.296875 97.277344 112.90625 76.277344 130.125 64.308594 C 128.863281 66.40625 127.816406 68.925781 127.183594 71.445312 C 124.875 80.265625 128.65625 91.398438 137.683594 94.757812 C 138.523438 95.175781 139.15625 93.917969 138.523438 93.285156 C 129.496094 84.046875 126.34375 73.128906 135.164062 61.785156 C 135.585938 61.367188 135.796875 60.945312 136.214844 60.738281 C 136.425781 60.738281 136.425781 60.527344 136.636719 60.527344 C 136.84375 60.316406 137.054688 60.105469 137.054688 59.898438 C 140.625 56.328125 145.246094 54.015625 149.445312 51.078125 C 142.09375 63.257812 143.566406 79.21875 155.535156 87.617188 C 156.164062 88.035156 157.003906 86.988281 156.375 86.566406 C 145.875 76.066406 144.613281 61.15625 153.855469 49.398438 C 157.003906 45.40625 160.785156 42.46875 164.773438 40.367188 C 153.433594 51.285156 154.695312 72.496094 164.355469 84.257812 C 166.664062 87.195312 169.183594 89.507812 172.125 91.605469 C 155.324219 86.988281 137.054688 89.507812 129.074219 107.566406 Z M 173.175781 87.617188 C 156.164062 74.808594 154.90625 49.605469 172.546875 37.21875 C 177.164062 35.957031 181.996094 35.117188 186.824219 34.90625 C 176.113281 40.15625 168.554688 52.128906 169.816406 64.9375 C 171.703125 82.15625 185.773438 93.285156 201.523438 96.226562 C 191.863281 96.648438 182.203125 94.546875 173.175781 87.617188 Z M 173.175781 87.617188 "/>
<path style=" stroke:none;fill-rule:nonzero;fill:rgb(22.745098%,20.784314%,22.745098%);fill-opacity:1;" d="M 258.644531 86.148438 C 247.09375 86.148438 237.015625 81.105469 229.453125 72.707031 C 222.316406 64.9375 210.976562 50.867188 215.804688 39.527344 C 216.226562 38.6875 215.175781 38.058594 214.753906 38.898438 C 208.875 49.816406 217.90625 61.996094 224.625 70.398438 C 233.023438 80.898438 244.785156 88.878906 258.644531 87.40625 C 259.484375 87.40625 259.484375 86.148438 258.644531 86.148438 Z M 210.554688 81.105469 C 200.265625 71.027344 189.136719 58.847656 195.855469 43.097656 C 196.273438 42.257812 195.226562 41.628906 194.804688 42.46875 C 186.824219 57.796875 197.535156 73.128906 209.925781 81.945312 C 210.34375 82.367188 210.976562 81.527344 210.554688 81.105469 Z M 209.714844 85.515625 C 196.484375 76.695312 183.675781 66.195312 183.886719 48.976562 C 183.886719 48.347656 182.835938 48.347656 182.835938 48.976562 C 181.996094 66.195312 194.386719 79.636719 209.296875 86.355469 C 209.714844 86.355469 210.136719 85.9375 209.714844 85.515625 Z M 213.914062 87.195312 C 201.734375 86.566406 191.234375 82.367188 183.253906 72.917969 C 182.835938 72.496094 181.996094 73.128906 182.414062 73.757812 C 189.976562 82.996094 201.734375 89.085938 213.703125 88.457031 C 214.546875 88.246094 214.546875 87.40625 213.914062 87.195312 Z M 177.375 82.785156 C 166.453125 71.867188 160.996094 56.535156 172.753906 43.726562 C 173.386719 42.886719 172.335938 41.835938 171.703125 42.675781 C 158.683594 54.4375 162.675781 75.015625 176.324219 84.675781 C 177.164062 85.097656 178.214844 83.628906 177.375 82.785156 Z M 159.316406 80.265625 C 153.015625 71.867188 151.125 61.578125 155.535156 51.917969 C 155.953125 51.285156 154.90625 50.65625 154.484375 51.285156 C 149.445312 60.945312 150.496094 73.128906 158.476562 80.898438 C 158.894531 81.316406 159.523438 80.898438 159.316406 80.265625 Z M 141.046875 62.835938 C 141.253906 62.207031 140.414062 61.996094 140.203125 62.628906 C 138.734375 68.085938 138.523438 74.386719 141.046875 79.425781 C 141.253906 80.058594 142.304688 79.636719 142.09375 79.007812 C 140.625 73.546875 139.785156 68.507812 141.046875 62.835938 Z M 141.046875 84.257812 C 139.363281 82.15625 137.683594 80.265625 136.636719 77.746094 C 136.425781 77.328125 135.796875 77.746094 136.003906 77.957031 C 137.054688 80.476562 138.523438 82.996094 140.835938 84.675781 C 140.835938 84.886719 141.253906 84.46875 141.046875 84.257812 Z M 124.035156 99.167969 C 119.625 90.976562 118.996094 83.628906 121.515625 74.808594 C 121.726562 73.96875 120.464844 73.546875 120.253906 74.386719 C 117.523438 82.367188 116.265625 93.496094 122.984375 100.007812 C 123.40625 100.847656 124.453125 100.007812 124.035156 99.167969 Z M 119.835938 106.726562 C 116.683594 101.476562 114.796875 96.648438 115.214844 90.558594 C 115.214844 90.136719 114.585938 90.136719 114.375 90.558594 C 113.746094 96.4375 114.796875 102.945312 118.996094 107.355469 C 119.625 107.777344 120.253906 107.355469 119.835938 106.726562 Z M 115.214844 138.4375 C 112.695312 131.507812 111.015625 124.996094 111.644531 117.226562 C 111.644531 116.808594 111.015625 116.597656 110.804688 117.226562 C 109.753906 124.578125 110.175781 132.558594 113.953125 139.066406 C 114.375 139.488281 115.425781 139.066406 115.214844 138.4375 Z M 107.65625 144.105469 C 107.445312 143.6875 107.023438 144.105469 107.023438 144.316406 C 107.863281 146.628906 108.496094 148.9375 109.753906 151.035156 C 109.964844 151.457031 110.59375 151.246094 110.386719 150.828125 C 109.964844 148.515625 108.703125 146.207031 107.65625 144.105469 Z M 283.636719 97.066406 C 283.214844 93.917969 283.003906 87.617188 279.015625 87.40625 C 278.386719 87.40625 278.175781 88.246094 278.804688 88.457031 C 282.164062 90.136719 281.953125 99.378906 281.953125 102.316406 C 281.746094 106.726562 280.695312 110.71875 279.226562 114.707031 C 279.015625 115.335938 280.066406 115.757812 280.484375 115.128906 C 283.214844 109.667969 284.265625 103.367188 283.636719 97.066406 Z M 288.464844 117.4375 C 288.253906 116.597656 287.203125 117.015625 287.203125 117.855469 C 288.464844 124.367188 286.574219 130.035156 283.214844 135.496094 C 282.796875 136.128906 283.636719 136.757812 284.265625 136.335938 C 288.886719 131.296875 290.144531 123.738281 288.464844 117.4375 Z M 290.984375 142.007812 C 290.984375 141.378906 289.933594 141.378906 289.933594 142.007812 C 290.355469 145.785156 289.726562 149.355469 288.886719 152.925781 C 288.886719 153.347656 289.304688 153.558594 289.515625 153.136719 C 291.195312 149.777344 291.40625 145.785156 290.984375 142.007812 Z M 243.316406 43.726562 C 242.683594 43.515625 242.476562 44.355469 243.105469 44.566406 C 258.226562 50.867188 267.046875 72.917969 271.664062 87.195312 C 271.875 87.828125 272.714844 87.617188 272.503906 86.988281 C 268.933594 71.867188 258.855469 49.605469 243.316406 43.726562 Z M 243.316406 43.726562 "/>
</g>
</svg>
